<?xml version="1.0" standalone="no"?>
<!DOCTYPE svg PUBLIC "-//W3C//DTD SVG 1.1//EN" "http://www.w3.org/Graphics/SVG/1.1/DTD/svg11.dtd" >
<svg xmlns="http://www.w3.org/2000/svg" xmlns:xlink="http://www.w3.org/1999/xlink" version="1.1">
<metadata>
Created by FontForge 20190801 at Mon Oct 26 12:20:53 2020
 By Jimmy Wärting
Alexander "Stan" Shimanov
</metadata>
<defs>
<font id="STSaturnRegular" horiz-adv-x="285" >
  <font-face 
    font-family="ST-Saturn"
    font-weight="400"
    font-stretch="normal"
    units-per-em="1000"
    panose-1="0 0 0 0 0 0 0 0 0 0"
    ascent="800"
    descent="-200"
    x-height="699.99"
    cap-height="774.062"
    bbox="11.001 -148.438 892.01 887.67"
    underline-thickness="0"
    underline-position="0"
    unicode-range="U+000A-F002"
  />
<missing-glyph horiz-adv-x="527" 
d="M50 700h427v-700h-427v700zM78 680l185 -309l186 309h-371zM251 350l-180 300v-601zM264 329l-185 -308h370zM276 350l181 -303v605z" />
    <glyph glyph-name=".notdef" horiz-adv-x="527" 
d="M50 700h427v-700h-427v700zM78 680l185 -309l186 309h-371zM251 350l-180 300v-601zM264 329l-185 -308h370zM276 350l181 -303v605z" />
    <glyph glyph-name=".null" horiz-adv-x="0" 
 />
    <glyph glyph-name=".null" horiz-adv-x="0" 
 />
    <glyph glyph-name="controlLF" unicode="&#xa;" horiz-adv-x="0" 
 />
    <glyph glyph-name="controlCR" unicode="&#xd;" horiz-adv-x="0" 
 />
    <glyph glyph-name="space" unicode=" " horiz-adv-x="154" 
 />
    <glyph glyph-name="exclam" unicode="!" horiz-adv-x="171" 
d="M116.645 98.1904h-62.5v675.931h62.5v-675.931zM85.3828 65.8701c19.5664 0 35.3945 -15.8525 35.3945 -35.3828c0 -19.5547 -15.8281 -35.4072 -35.3945 -35.4072c-19.5303 0 -35.3828 15.8525 -35.3828 35.4072c0 19.5303 15.8525 35.3828 35.3828 35.3828z" />
    <glyph glyph-name="quotedbl" unicode="&#x22;" horiz-adv-x="306" 
d="M82.6025 773.075h72.7451l-62.709 -136.315h-42.6387zM183.031 773.075h72.7441l-62.709 -136.315h-42.6504z" />
    <glyph glyph-name="quotedbl" unicode="&#x201d;" horiz-adv-x="306" 
d="M82.6025 773.075h72.7451l-62.709 -136.315h-42.6387zM183.031 773.075h72.7441l-62.709 -136.315h-42.6504z" />
    <glyph glyph-name="quotedbl" unicode="&#x201c;" horiz-adv-x="306" 
d="M82.6025 773.075h72.7451l-62.709 -136.315h-42.6387zM183.031 773.075h72.7441l-62.709 -136.315h-42.6504z" />
    <glyph glyph-name="numbersign" unicode="#" horiz-adv-x="459" 
d="M409.039 748.426l-67.6162 -304.705h62.3408l-13.8721 -62.5h-62.3408l-13.873 -62.5h62.3281l-13.8721 -62.5h-62.3408l-67.6045 -304.618h-62.5127l67.6045 304.618h-57.1631l-67.6045 -304.618h-62.5127l67.6045 304.631h-67.6045l13.8721 62.5h67.6045l13.8721 62.5
h-67.6045l13.873 62.5h67.6045l67.6289 304.692h62.5127l-67.6289 -304.692h57.1631l67.6289 304.692h62.5127zM251.165 318.732l13.873 62.5h-57.1631l-13.873 -62.5h57.1631z" />
    <glyph glyph-name="dollar" unicode="$" horiz-adv-x="287" 
d="M170.244 366.224c81.2549 -155.537 87.4424 -279.468 21.1045 -366.208h-20.8584v-106.467h-54.3711v106.467h-24.5107c-27.6094 36.083 -41.457 81.9932 -41.6045 134.864h64.1113c1.85742 -36.0342 11.5361 -69.1787 29.4551 -99.002
c52.9941 83.1367 35.0381 179.974 -28.8027 302.195c-77.9473 149.216 -85.4004 280.464 -23.0967 361.929h24.4492v106.713h54.3711v-106.726h24.0186c27.6094 -36.083 41.457 -81.9932 41.6045 -134.864h-64.1113c-1.84473 35.6279 -11.3271 68.4404 -28.8643 98.0176
c-47.3486 -79.4844 -35.0625 -177.896 27.1055 -296.919z" />
    <glyph glyph-name="ampersand" unicode="&#x26;" horiz-adv-x="298" 
d="M297.797 -0l-56.3037 0.00195312c-5.64453 26.1338 -15.6436 49.7959 -23.0723 65.0459c-10.8467 -23.0352 -25.5928 -52.6621 -34.5088 -65.0342h-79.0293c-62.832 113.305 -29.7002 188.57 2.91504 248.623c-33.2793 61.5283 -69.4238 143.632 -54.2227 260.639
c10.1582 94.0088 28.8398 156.521 47.8652 190.711h85.9043c19.0498 -34.1895 37.7314 -96.7021 47.8652 -190.711c13.2822 -129.711 -27.0439 -201.89 -56.9287 -259.286c8.66992 -14.2412 17.6602 -27.8428 26.6016 -41.2969
c0.897461 -1.34082 1.7832 -2.68164 2.66895 -4.02246c4.83301 15.9629 9.02637 31.8643 12.2979 47.2002h58.1836c-6.45703 -37.4854 -17.4023 -77 -30.0693 -113.87c19.6895 -38.4199 47.1025 -103.466 49.833 -138zM144.397 646.896
c-10.0967 -27.0938 -21.5469 -71.627 -29.0361 -137.607c-8.00586 -79.8037 5.15332 -140.164 27.6592 -189.432c24.4365 44.2744 37.8545 107.82 30.4258 189.433c-7.48926 65.9805 -18.9395 110.525 -29.0488 137.606zM146.869 57.8896
c10.8467 19.5303 22.998 45.1475 34.5342 73.4336c-8.53516 14.377 -33.0332 51.3213 -35.6895 55.3555c-19.2842 -37.6826 -24.2773 -91.6846 1.15527 -128.789z" />
    <glyph glyph-name="quotesingle" unicode="'" horiz-adv-x="135" 
d="M124.35 745.08l-62.71 -136.33h-42.6396l32.5996 136.33h72.75z" />
    <glyph glyph-name="parenleft" unicode="(" horiz-adv-x="274" 
d="M223.801 712.515c-35.0869 -45.5283 -108.066 -140.251 -108.066 -362.311c0 -222.194 73.1758 -317.076 108.35 -362.679l-52.0469 -40.1543c-36.5137 47.3486 -122.036 158.219 -122.036 402.833c0 244.43 85.2891 355.152 121.717 402.428l52.3662 -39.7236z" />
    <glyph glyph-name="parenright" unicode=")" horiz-adv-x="274" 
d="M102.366 752.632c36.4277 -47.2627 121.729 -157.985 121.717 -402.415c0 -244.614 -85.5225 -355.484 -122.036 -402.833l-52.0469 40.1543c35.1729 45.6025 108.349 140.484 108.349 362.679c0 222.06 -72.9785 316.77 -108.065 362.298l-0.283203 0.393555z" />
    <glyph glyph-name="asterisk" unicode="*" horiz-adv-x="307" 
d="M256.994 720.453v-40.9531h-64.1484l36.7969 -52.5391l-33.5381 -23.4902l-42.6016 60.8154l-42.6143 -60.8154l-33.5381 23.4902l36.7969 52.5391h-64.1484l0.0126953 40.9531h64.1357l-36.7969 52.5264l33.5381 23.502l42.6143 -60.8154l42.6016 60.8154
l33.5381 -23.502l-36.7969 -52.5264h64.1484z" />
    <glyph glyph-name="plus" unicode="+" horiz-adv-x="416" 
d="M365.896 381.26v-62.5h-126.698v-126.686h-62.5v126.686h-126.698v62.5h126.698v126.698h62.5v-126.698h126.698z" />
    <glyph glyph-name="comma" unicode="," horiz-adv-x="206" 
d="M155.348 80.2236l-62.709 -136.315h-42.6387l32.6025 136.315h72.7451z" />
    <glyph glyph-name="hyphen" unicode="-" horiz-adv-x="342" 
d="M292.105 318.762h-242.105v62.5h242.105v-62.5z" />
    <glyph glyph-name="period" unicode="." horiz-adv-x="177" 
d="M88.5312 72.166c21.3008 0 38.5322 -17.2676 38.5322 -38.5312c0 -21.2881 -17.2305 -38.5547 -38.5439 -38.5547c-21.252 0.0126953 -38.5186 17.2676 -38.5186 38.5557c0 21.2637 17.2666 38.5303 38.5303 38.5303z" />
    <glyph glyph-name="slash" unicode="/" horiz-adv-x="339" 
d="M226.851 748.426h62.5127l-176.851 -796.824h-62.5127z" />
    <glyph glyph-name="zero" unicode="0" horiz-adv-x="297" 
d="M191.604 699.986c28.2246 -50.6689 55.7246 -163.212 55.7373 -348.881c0 -197.573 -34.3496 -301.63 -59.168 -351.094h-79.0293c-24.7939 49.4521 -59.1436 153.509 -59.1436 351.095c0 185.669 27.4873 298.211 55.7119 348.88h85.8916zM148.658 64.9102
c17.7461 51.2969 37.1787 140.645 37.1787 286.195c0 158.87 -20.4766 250.997 -37.1777 295.788c-16.7012 -44.791 -37.166 -136.918 -37.166 -295.788c0 -145.551 19.4434 -234.898 37.165 -286.195z" />
    <glyph glyph-name="one" unicode="1" horiz-adv-x="196" 
d="M83.083 699.985h62.5127v-699.986h-62.5127v510.812h-33.083z" />
    <glyph glyph-name="two" unicode="2" horiz-adv-x="294" 
d="M244.117 492.576c0 -145.269 -71.1475 -314.087 -123.44 -418.647h122.504v-73.9131l-193.183 -0.0126953v71.6133c39.9209 75.8076 132.626 267.515 132.626 420.961c0 81.0586 -15.1143 136.549 -32.873 163.802
c-18.6562 -29.2451 -37.7188 -87.1094 -37.7188 -163.433h-61.4922c0 84.4033 21.6084 162.916 54.8877 207.067h88.4375c44.582 -56.2773 50.252 -159.769 50.252 -207.438z" />
    <glyph glyph-name="three" unicode="3" horiz-adv-x="221" 
d="M170.659 538.915c0 -62.4268 -12.4346 -109.258 -48.4199 -144.222c37.7559 -47.7051 48.4189 -101.806 48.4189 -190.145c0 -137.028 -49.2422 -203.648 -78.5986 -231.172l-42.0605 44.8525c17.7959 16.6885 59.168 68.2305 59.168 186.319
c0 78.6846 -16.959 134.802 -48.8242 162.731v55.2441c31.9639 21.0547 48.8252 60.5322 48.8252 116.403c0 89.2617 -37.3506 125.615 -50.4238 131.31l24.5596 56.376c43.4873 -18.9395 87.3555 -84.3301 87.3555 -187.698z" />
    <glyph glyph-name="four" unicode="4" horiz-adv-x="308" 
d="M229.863 151.172l28.1758 -0.000976562v-73.79h-28.1875v-77.3809h-62.5127v77.3818h-117.339v73.79l115.813 548.814h64.0498v-548.814zM108.799 151.171h58.5527v277.488z" />
    <glyph glyph-name="five" unicode="5" horiz-adv-x="268" 
d="M112.513 483.461c0 0 105.839 -71.7852 105.852 -258.967c0 -150.064 -59.4746 -222.601 -94.9189 -252.485l-39.6377 47.0166c21.9648 18.5088 73.0527 75.5977 73.0527 205.469c0 171.23 -106.86 224.015 -106.86 224.015v251.465h166.84v-73.79h-104.327v-142.723z
" />
    <glyph glyph-name="six" unicode="6" horiz-adv-x="293" 
d="M156.745 543.575c140.546 -188.891 79.1152 -471.507 23.2314 -543.551h-73.5684c-98.2891 178.142 -60.1396 506.323 52.8086 699.974h72.8682c-31.582 -45.0859 -57.2979 -99.1621 -76.7783 -157.493zM145.517 60.5693
c32.8369 70.6787 66.8906 258.265 -11.8809 404.751c-33.2422 -144.383 -30.8193 -300.522 11.8809 -404.751z" />
    <glyph glyph-name="seven" unicode="7" 
d="M235.496 699.974l-33.2295 -189.161h27.4131v-59.7949h-37.916l-79.251 -451.019h-62.5127l79.251 451.019h-32.7998v59.7949h43.3027l20.2676 115.371h-110.021v73.79h185.496z" />
    <glyph glyph-name="eight" unicode="8" horiz-adv-x="294" 
d="M243.871 531.412c0 -63.9023 -20.2686 -106.493 -40.8193 -133.291c22.5557 -34.9395 40.8066 -92.0527 40.8066 -174.243c0 -129.514 -75.5 -223.879 -75.5 -223.879h-45.7256s-72.6338 82.2148 -72.6338 223.88c0 82.1904 18.251 139.292 40.8066 174.244
c-20.5381 26.7979 -40.8057 69.3867 -40.8057 133.289c0 92.6436 39.7363 151.43 79.0908 168.573h35.6895c39.3672 -17.1436 79.0908 -75.9297 79.0908 -168.573zM146.935 80.9824c16.2588 23.6865 35.4424 67.5674 35.4424 142.883
c0 84.6006 -21.3867 129.071 -35.4434 147.334c-14.0566 -18.2627 -35.4434 -62.7334 -35.4434 -147.334c0 -75.3154 19.1855 -119.196 35.4443 -142.883zM146.933 426.887c15.6562 16.3447 35.4424 48.0996 35.4424 104.524c0 64.1729 -21.9033 96.1611 -35.4434 107.66
c-13.54 -11.499 -35.4434 -43.4746 -35.4434 -107.66c0 -56.4248 19.7881 -88.1797 35.4443 -104.524z" />
    <glyph glyph-name="nine" unicode="9" horiz-adv-x="292" 
d="M185.438 699.999c99.1006 -177.33 63.2988 -529.222 -70.0527 -728l-41.4082 46.6846c28.4219 44.8027 44.1514 79.6191 63.4102 137.311l-1.43848 -1.07031c-140.681 189.075 -78.9922 472.049 -23.0713 543.772
c-0.332031 0.442383 -0.688477 0.860352 -1.02051 1.30273h73.5811zM159.069 233.191c33.2422 144.383 30.8193 300.511 -11.8809 404.752c-32.8369 -70.6787 -66.8906 -258.278 11.8809 -404.752z" />
    <glyph glyph-name="colon" unicode=":" horiz-adv-x="187" 
d="M93.2998 197.74c23.9502 0 43.3203 -19.4102 43.3203 -43.2998c0 -23.9199 -19.3701 -43.3301 -43.3203 -43.3301c-23.8896 0 -43.2998 19.4004 -43.2998 43.3301c0 23.8896 19.4102 43.2998 43.2998 43.2998zM93.2998 480.26
c-23.8896 0 -43.2998 19.3896 -43.2998 43.3301c0 23.8896 19.4102 43.2998 43.2998 43.2998c23.9502 0 43.3203 -19.4102 43.3203 -43.2998c0 -23.9199 -19.3701 -43.3301 -43.3203 -43.3301z" />
    <glyph glyph-name="semicolon" unicode=";" horiz-adv-x="205" 
d="M102.662 491.261c-23.8955 0 -43.3027 19.3945 -43.3027 43.3271c0 23.9082 19.4072 43.3027 43.3027 43.3027c23.9453 0 43.3271 -19.3945 43.3145 -43.3027c0 -23.9326 -19.3818 -43.3271 -43.3145 -43.3271zM82.6035 208.891h72.7451l-62.709 -136.315h-42.6387z" />
    <glyph glyph-name="less" unicode="&#x3c;" horiz-adv-x="251" 
d="M200.926 748.424l-88.4258 -398.405l88.4258 -398.405h-62.5127l-88.4131 398.405l88.4131 398.405h62.5127z" />
    <glyph glyph-name="equal" unicode="=" horiz-adv-x="356" 
d="M50 256.236v62.5h256.286v-62.5h-256.286zM50 443.737h256.286v-62.5h-256.286v62.5z" />
    <glyph glyph-name="greater" unicode="&#x3e;" horiz-adv-x="251" 
d="M138.426 350.018l-88.4258 398.405h62.5127l88.4131 -398.405l-88.4131 -398.405h-62.5127z" />
    <glyph glyph-name="question" unicode="?" horiz-adv-x="274" 
d="M119.067 65.8701c19.5664 0 35.3945 -15.8525 35.3945 -35.3828c0 -19.5547 -15.8281 -35.4072 -35.3945 -35.4072c-19.5303 0 -35.3828 15.8525 -35.3828 35.4072c0 19.5303 15.8525 35.3828 35.3828 35.3828zM89.1328 788.116
c103.663 -85.4736 190.969 -273.134 87.084 -501.121c-41.2246 -90.5039 -40.6953 -147.359 -27.585 -185.152h-63.6689c-13.7373 59.0195 -2.06641 128.641 35.2842 210.634c91.9922 201.915 11.3027 360.97 -70.248 428.205z" />
    <glyph glyph-name="at" unicode="@" horiz-adv-x="392" 
d="M336.742 241.928c2.05371 -14.1924 14.1914 -25.1758 28.9492 -25.1758v-61.4668c-22.9121 0 -43.8066 8.58398 -59.8066 22.6289c-15.582 -13.6758 -35.8252 -22.1123 -58.0488 -22.543v-0.0859375c-0.294922 0 -0.578125 0.0488281 -0.873047 0.0488281
c-0.294922 -0.0126953 -0.578125 -0.0498047 -0.873047 -0.0498047v0.0859375c-49.292 0.947266 -89.1143 41.2734 -89.1143 90.7871v219.993c0 49.5137 39.8223 89.8398 89.1143 90.7871v0.0859375c0.294922 0 0.578125 -0.0488281 0.873047 -0.0488281
c0.294922 0.0126953 0.578125 0.0498047 0.873047 0.0498047v-0.0859375c9.6543 -0.18457 18.9277 -1.89453 27.623 -4.88281v57.0518c0 16.209 -13.1836 29.3926 -29.3809 29.3926v0.0371094h-105.2v-0.0371094c-16.209 0 -29.3809 -13.1836 -29.3809 -29.3926v-518.229
c0 -16.209 13.1719 -29.3926 29.3809 -29.3926v-0.0371094h105.2v0.0371094c16.209 0 29.3809 13.1836 29.3809 29.3926v30.9795h61.4922v-30.9795c0 -50.1162 -40.7695 -90.8857 -90.873 -90.8857h-105.2c-50.1162 0 -90.873 40.7812 -90.873 90.8848v518.229
c0 50.1162 40.7568 90.8857 90.873 90.8857h105.2c50.1162 0 90.873 -40.7812 90.873 -90.8848v-362.974c0 -1.41406 -0.147461 -2.80371 -0.208984 -4.20605zM246.963 216.851c14.3525 0.430664 26.0605 11.168 28.0654 25.0771
c-0.0615234 1.40234 -0.208984 2.79199 -0.208984 4.20605v121.618h0.651367v98.3867c0 15.9014 -12.7168 28.8145 -28.5078 29.2939c-15.791 -0.467773 -28.5078 -13.3936 -28.5078 -29.2949v-219.993c0 -15.9014 12.7168 -28.8145 28.5078 -29.2939z" />
    <glyph glyph-name="A" unicode="A" horiz-adv-x="262" 
d="M179.12 773.96l52.2705 -848.2h-62.5195l-5.78027 77.3799h-64.7998l-5.78027 -77.3799h-62.5098l52.2695 848.2h96.8496zM103.801 76.9199h53.7695l-26.8799 508.32z" />
    <glyph glyph-name="A" unicode="&#xc2;" horiz-adv-x="262" 
d="M179.12 773.96l52.2705 -848.2h-62.5195l-5.78027 77.3799h-64.7998l-5.78027 -77.3799h-62.5098l52.2695 848.2h96.8496zM103.801 76.9199h53.7695l-26.8799 508.32z" />
    <glyph glyph-name="B" unicode="B" horiz-adv-x="270" 
d="M220.308 580.595c0 -63.9023 -20.2549 -118.789 -40.8057 -145.587c22.5557 -34.9395 40.8066 -127.165 40.8066 -209.355c0 -207.879 -82.707 -299.896 -82.707 -299.896h-87.6016v848.268h91.2168c31.7178 -16.5049 79.0908 -87.8604 79.0908 -193.43z
M112.514 -6.95898c23.1582 56.7939 46.3037 105.654 46.3037 232.61c0 109.025 -35.5918 186.727 -45.1104 192.15l-1.19336 0.787109v-425.548zM112.514 454.032c15.041 11.3145 46.3037 55.6748 46.3037 126.562c0 97.5752 -46.3037 138.836 -46.3037 138.836v-265.398z
" />
    <glyph glyph-name="C" unicode="C" horiz-adv-x="213" 
d="M192.572 731.656c-32.8125 -47.9512 -101.08 -147.715 -101.08 -381.63c0 -234.038 68.4404 -333.975 101.351 -382l-48.6895 -42.2822c-34.1523 49.8701 -114.153 166.655 -114.153 424.294c0 257.479 79.7793 374.079 113.858 423.875l48.9844 -41.8389z" />
    <glyph glyph-name="D" unicode="D" horiz-adv-x="261" 
d="M121.27 768.834c51.5674 -44.2002 109.469 -215.936 109.481 -409.352c0 -204.215 -67.8506 -383.808 -99.2236 -433.727h-81.5264v848.465h63.9883zM112.502 12.6309c19.5664 50.9033 59.9668 188.424 59.9541 346.852c0 144.53 -34.6318 289.196 -59.9541 329.276
v-676.128z" />
    <glyph glyph-name="E" unicode="E" horiz-adv-x="274" 
d="M233.603 712.544l-121.09 -0.000976562v-147.728h57.5566v-73.79h-57.5566v-491.479h121.09v-73.79h-183.603v848.28h183.603v-61.4922z" />
    <glyph glyph-name="E" unicode="&#xcb;" horiz-adv-x="274" 
d="M233.603 712.544l-121.09 -0.000976562v-147.728h57.5566v-73.79h-57.5566v-491.479h121.09v-73.79h-183.603v848.28h183.603v-61.4922z" />
    <glyph glyph-name="F" unicode="F" horiz-adv-x="264" 
d="M233.614 712.544l-121.089 -0.000976562v-147.728h57.5566v-73.79h-57.5566v-565.27h-62.5254v848.28h183.614v-61.4922z" />
    <glyph glyph-name="G" unicode="G" horiz-adv-x="257" 
d="M227.315 350.001h-92.5088v61.4922h92.5088v-61.4922zM128.657 -9.33301c17.6973 51.1611 37.0684 214.446 37.1787 359.333h61.4922c-0.135742 -196.835 -34.3867 -374.866 -59.1553 -424.231h-79.0293c-24.7939 49.4521 -59.1436 227.767 -59.1436 425.34
c0 185.656 27.499 372.26 55.7119 422.929h85.8916c15.0654 -27.0439 29.8848 -71.8965 40.4492 -135.897h-62.2051c-6.54297 36.8213 -14.1924 64.0371 -21.1904 82.8047c-16.6885 -44.791 -37.1533 -210.967 -37.1533 -369.837
c0 -145.551 19.4316 -309.144 37.1533 -360.44z" />
    <glyph glyph-name="H" unicode="H" 
d="M172.983 774.036h62.5127v-848.28h-62.5127v405.269h-60.4707v-405.269h-62.5127v848.28h62.5127v-369.222h60.4707v369.222z" />
    <glyph glyph-name="I" unicode="I" horiz-adv-x="163" 
d="M112.513 -74.2314h-62.5127v848.268h62.5127v-848.268z" />
    <glyph glyph-name="I" unicode="&#xcf;" horiz-adv-x="163" 
d="M112.513 -74.2314h-62.5127v848.268h62.5127v-848.268z" />
    <glyph glyph-name="I" unicode="&#xce;" horiz-adv-x="163" 
d="M112.513 -74.2314h-62.5127v848.268h62.5127v-848.268z" />
    <glyph glyph-name="J" unicode="J" horiz-adv-x="243" 
d="M30.0195 774.06h162.83v-471.67c-0.0400391 -228.68 -80.0098 -332.359 -114.149 -376.629l-48.6904 37.5596c32.8896 42.6299 101.31 131.35 101.35 339.069h0.209961v410.18h-101.55v61.4902z" />
    <glyph glyph-name="K" unicode="K" horiz-adv-x="280" 
d="M230.245 774.036l-68.4277 -359.321l68.4277 -488.959h-58.7988l-58.9336 431.427v-431.427h-62.5127v848.28h62.5127v-319.745l58.9336 319.745h58.7988z" />
    <glyph glyph-name="L" unicode="L" horiz-adv-x="234" 
d="M112.525 -12.752h81.2305v-61.4922h-143.756v848.305h62.5254v-786.812z" />
    <glyph glyph-name="M" unicode="M" horiz-adv-x="401" 
d="M92.5098 -74.2402h-62.5088l52.2695 848.3h87.3799l30.6299 -455.65l30.5498 455.65h87.4404l52.2695 -848.3h-62.5l-38.1699 659.6l-38.1904 -659.6h-62.8096l-38.1699 659.6z" />
    <glyph glyph-name="N" unicode="N" 
d="M172.983 774.049h62.5137v-848.268h-64.4316l-58.5527 440.43v-440.454h-62.5127v848.292h64.0498l58.9336 -504.528v504.528z" />
    <glyph glyph-name="O" unicode="O" horiz-adv-x="257" 
d="M171.604 774.012c28.2246 -50.6689 55.7246 -237.259 55.7246 -422.928c0 -197.586 -34.3369 -375.863 -59.1553 -425.327h-79.0293c-24.7939 49.4639 -59.1436 227.753 -59.1436 425.326c0 185.669 27.499 372.26 55.7119 422.929h85.8916zM128.658 -9.33203
c17.7461 51.2969 37.1787 214.865 37.1787 360.416c0 158.87 -20.4766 325.033 -37.1777 369.824c-16.7012 -44.7783 -37.166 -210.954 -37.166 -369.824c0 -145.551 19.4434 -309.119 37.165 -360.416z" />
    <glyph glyph-name="O" unicode="&#xd8;" horiz-adv-x="257" 
d="M171.604 774.012c28.2246 -50.6689 55.7246 -237.259 55.7246 -422.928c0 -197.586 -34.3369 -375.863 -59.1553 -425.327h-79.0293c-24.7939 49.4639 -59.1436 227.753 -59.1436 425.326c0 185.669 27.499 372.26 55.7119 422.929h85.8916zM128.658 -9.33203
c17.7461 51.2969 37.1787 214.865 37.1787 360.416c0 158.87 -20.4766 325.033 -37.1777 369.824c-16.7012 -44.7783 -37.166 -210.954 -37.166 -369.824c0 -145.551 19.4434 -309.119 37.165 -360.416z" />
    <glyph glyph-name="O" unicode="&#xd4;" horiz-adv-x="257" 
d="M171.604 774.012c28.2246 -50.6689 55.7246 -237.259 55.7246 -422.928c0 -197.586 -34.3369 -375.863 -59.1553 -425.327h-79.0293c-24.7939 49.4639 -59.1436 227.753 -59.1436 425.326c0 185.669 27.499 372.26 55.7119 422.929h85.8916zM128.658 -9.33203
c17.7461 51.2969 37.1787 214.865 37.1787 360.416c0 158.87 -20.4766 325.033 -37.1777 369.824c-16.7012 -44.7783 -37.166 -210.954 -37.166 -369.824c0 -145.551 19.4434 -309.119 37.165 -360.416z" />
    <glyph glyph-name="P" unicode="P" horiz-adv-x="249" 
d="M118.908 770.593c50.1279 -25.6914 99.4443 -115.444 99.457 -256.863c0 -150.064 -59.4746 -222.601 -94.9307 -252.485l-10.9336 -9.61719v-325.87h-62.5v848.292h62.5zM112.488 341.024c21.6699 32.0254 44.373 86.126 44.3604 172.719
c0 94.4512 -23.8711 150.421 -44.3604 178.916v-351.635z" />
    <glyph glyph-name="Q" unicode="Q" horiz-adv-x="257" 
d="M227.34 375.704c0 -163.839 -23.6123 -280.107 -45.8105 -343.297l45.7988 -106.627h-62.5254l-31.8896 74.2334h-43.7695c-24.7939 49.4639 -59.1436 178.117 -59.1436 375.69c0 185.656 27.499 347.688 55.7119 398.356h85.9043
c28.2246 -50.6689 55.7236 -212.688 55.7236 -398.356zM128.646 720.969c-16.6885 -44.791 -37.1533 -186.395 -37.1533 -345.265c0 -145.563 19.4316 -259.495 37.1533 -310.792c17.7588 51.2969 37.1904 165.241 37.1904 310.792
c0 158.87 -20.4893 300.474 -37.1904 345.265z" />
    <glyph glyph-name="R" unicode="R" horiz-adv-x="277" 
d="M246.805 -74.2441l-62.5137 0.0117188l-71.7852 315.613v-315.625h-62.5v848.256h62.5l6.40723 -3.45605c50.1279 -25.6914 99.4443 -115.433 99.4443 -256.852c0 -103.27 -28.1631 -169.828 -57.2852 -211.027zM112.506 692.633v-351.622
c21.6572 32.0127 44.3604 86.126 44.3604 172.706c0 94.4512 -23.8711 150.421 -44.3604 178.916z" />
    <glyph glyph-name="S" unicode="S" horiz-adv-x="198" 
d="M126.36 361.93c70.04 -195 51.75 -337.659 -55.9102 -436.149l-39.1299 52.6299c85.5596 78.2598 97.5996 192.1 37.9297 358.27c-68.1104 189.63 -46.6699 353.14 57.3604 437.38l36.2402 -55.0996c-79.9004 -64.7002 -93.54 -198.17 -36.4902 -357.03z" />
    <glyph glyph-name="T" unicode="T" horiz-adv-x="265" 
d="M234.128 774.061l0.000976562 -61.4922h-70.8145v-786.812h-62.5127v786.812h-70.8018v61.4922h204.128z" />
    <glyph glyph-name="U" unicode="U" horiz-adv-x="282" 
d="M170.266 774.061h61.4922v-757.42c0 -50.1035 -40.7812 -90.873 -90.8848 -90.873c-50.1162 0 -90.873 40.7695 -90.873 90.873v757.42h61.4922v-757.42c0 -16.1973 13.1836 -29.3809 29.3809 -29.3809c16.209 0 29.3926 13.1836 29.3926 29.3809v757.42z" />
    <glyph glyph-name="U" unicode="&#xdb;" horiz-adv-x="282" 
d="M170.266 774.061h61.4922v-757.42c0 -50.1035 -40.7812 -90.873 -90.8848 -90.873c-50.1162 0 -90.873 40.7695 -90.873 90.873v757.42h61.4922v-757.42c0 -16.1973 13.1836 -29.3809 29.3809 -29.3809c16.209 0 29.3926 13.1836 29.3926 29.3809v757.42z" />
    <glyph glyph-name="V" unicode="V" horiz-adv-x="261" 
d="M168.86 774.06h62.5088l-52.2598 -848.3h-96.8398l-52.2695 848.3h62.5l38.1699 -659.59z" />
    <glyph glyph-name="W" unicode="W" horiz-adv-x="401" 
d="M308.04 774.06h62.5098l-52.2598 -848.3h-87.4004l-30.6201 455.66l-30.5498 -455.66h-87.4502l-52.2695 848.3h62.5l38.1904 -659.59l38.1699 659.59h62.8203l38.1797 -659.59z" />
    <glyph glyph-name="X" unicode="X" horiz-adv-x="298" 
d="M257.77 774.04l-77.6299 -424.14l77.6299 -424.13h-62.5l-46.3799 253.41l-46.3896 -253.41h-62.5l77.6396 424.13l-77.6396 424.14h62.5l46.3896 -253.41l46.3799 253.41h62.5z" />
    <glyph glyph-name="Y" unicode="Y" horiz-adv-x="270" 
d="M177.32 774.06h62.5088l-103.56 -848.29h-62.5098l30.0801 246.42l-73.8398 601.87h62.5098l42.3301 -347.99z" />
    <glyph glyph-name="Z" unicode="Z" 
d="M245.48 774.04l-130.501 -774.279h118.2v-73.9902h-193.18l132.61 786.77h-120.31v61.5h193.18z" />
    <glyph glyph-name="backslash" unicode="\" horiz-adv-x="339" 
d="M112.513 748.426l176.851 -796.824h-62.5127l-176.851 796.824h62.5127z" />
    <glyph glyph-name="underscore" unicode="_" horiz-adv-x="416" 
d="M365.884 0.000976562h-315.884v62.5h315.884v-62.5z" />
    <glyph glyph-name="a" unicode="a" horiz-adv-x="262" 
d="M179.11 699.99l52.2803 -699.99h-62.5195l-5.78027 77.3896h-64.7998l-5.78027 -77.3896h-62.5098l52.2695 699.99h96.8398zM103.801 151.18h53.7793l-26.8896 360.11z" />
    <glyph glyph-name="a" unicode="&#xe2;" horiz-adv-x="262" 
d="M179.11 699.99l52.2803 -699.99h-62.5195l-5.78027 77.3896h-64.7998l-5.78027 -77.3896h-62.5098l52.2695 699.99h96.8398zM103.801 151.18h53.7793l-26.8896 360.11z" />
    <glyph glyph-name="b" unicode="b" horiz-adv-x="270" 
d="M220.32 531.418c0 -63.915 -20.2686 -106.503 -40.8193 -133.276c22.5557 -34.9521 40.8066 -92.0537 40.8066 -174.244c0 -122 -44.0771 -181.524 -70.3467 -206.158l-18.7676 -17.7344h-81.1934v699.986h91.2295c39.3672 -17.1436 79.0908 -75.9297 79.0908 -168.573z
M112.524 67.2783c16.8242 18.1768 46.3037 63.2744 46.3037 156.595c0 109.037 -35.5918 151.614 -45.1104 157.038l-1.19336 0.799805v-314.433zM112.524 417.154c15.0283 11.3018 46.3027 43.3633 46.3027 114.251c0 76.582 -31.2256 107.427 -42.1709 112.198
l-4.13184 1.7959v-228.245z" />
    <glyph glyph-name="c" unicode="c" horiz-adv-x="223" 
d="M192.572 689.083c-32.8125 -42.5771 -101.08 -131.187 -101.08 -338.894c0 -207.854 68.4404 -296.612 101.351 -339.263l-48.6895 -37.5596c-34.1523 44.2861 -114.153 147.998 -114.153 376.81c0 228.664 79.7793 332.217 113.858 376.441l48.9844 -37.166z" />
    <glyph glyph-name="d" unicode="d" horiz-adv-x="261" 
d="M121.27 694.593c51.5674 -44.2002 109.469 -154.442 109.469 -347.847c0 -204.215 -67.3955 -306.229 -106.136 -346.74h-74.6016v699.974h63.9883zM112.514 86.8809c26.835 45.8486 56.7314 126.686 56.7441 259.853c0 144.53 -31.4219 227.704 -56.7441 267.784
v-527.637z" />
    <glyph glyph-name="e" unicode="e" horiz-adv-x="274" 
d="M233.603 638.499l-121.09 -0.000976562v-147.728h57.5684v-73.79h-57.5684v-343.186h121.09v-73.79h-183.603v699.986h183.603v-61.4922z" />
    <glyph glyph-name="f" unicode="f" horiz-adv-x="264" 
d="M233.603 638.499l-121.09 0.000976562v-147.729h57.5566v-73.79h-57.5566v-416.977h-62.5127v699.986h183.603v-61.4922z" />
    <glyph glyph-name="g" unicode="g" horiz-adv-x="258" 
d="M227.327 350.004h-92.5088v61.4922h92.5088v-61.4922zM128.657 64.915c17.71 51.1611 37.0801 140.202 37.1787 285.102h61.4922c-0.135742 -196.848 -34.3867 -300.621 -59.1553 -349.986h-79.0293c-24.7939 49.4639 -59.1436 153.521 -59.1436 351.094
c0 185.669 27.499 298.211 55.7119 348.88h85.8916c15.0654 -27.0439 29.8848 -71.8965 40.4492 -135.897h-62.2051c-6.54297 36.8086 -14.1924 64.0244 -21.1904 82.792c-16.6885 -44.791 -37.1533 -136.918 -37.1533 -295.788
c0 -145.563 19.4316 -234.898 37.1533 -286.195z" />
    <glyph glyph-name="h" unicode="h" 
d="M172.983 699.991h62.5127v-699.986h-62.5127v331.035h-60.4707v-331.035h-62.5127v699.986h62.5127v-295.161h60.4707v295.161z" />
    <glyph glyph-name="i" unicode="i" horiz-adv-x="163" 
d="M112.513 0.00488281h-62.5127v699.986h62.5127v-699.986z" />
    <glyph glyph-name="i" unicode="&#xee;" horiz-adv-x="163" 
d="M112.513 0.00488281h-62.5127v699.986h62.5127v-699.986z" />
    <glyph glyph-name="j" unicode="j" horiz-adv-x="243" 
d="M30.0195 699.99h162.83v-349.99c-0.0400391 -228.68 -80.0098 -332.359 -114.149 -376.629l-48.6904 37.5596c32.8896 42.6299 101.31 131.35 101.35 339.069h0.209961v288.5h-101.55v61.4902z" />
    <glyph glyph-name="k" unicode="k" horiz-adv-x="270" 
d="M230.232 699.991l-68.4277 -285.261l68.4277 -414.726h-58.7861l-58.9336 357.194v-357.194h-62.5127v699.986h62.5127v-245.685l58.9336 245.685h58.7861z" />
    <glyph glyph-name="l" unicode="l" horiz-adv-x="224" 
d="M112.525 61.5088l81.2422 0.000976562v-61.4922h-143.768v699.974h62.5254v-638.482z" />
    <glyph glyph-name="m" unicode="m" horiz-adv-x="385" 
d="M218.599 699.991h116.735v-699.986h-62.5127v628.791l-47.3115 -628.791h-65.6855l-47.3115 628.791v-628.791h-62.5127v699.986h116.736l25.9248 -400.238z" />
    <glyph glyph-name="n" unicode="n" 
d="M172.983 699.991h62.5137v-699.986h-64.4316l-58.5527 378.507v-378.507h-62.5127v699.986h64.0498l58.9336 -380.831v380.831z" />
    <glyph glyph-name="o" unicode="o" horiz-adv-x="257" 
d="M171.604 699.991c28.2246 -50.6816 55.7246 -163.223 55.7246 -348.879c0 -197.586 -34.3369 -301.643 -59.1553 -351.095h-79.0293c-24.7939 49.4639 -59.1436 153.521 -59.1436 351.094c0 185.669 27.499 298.211 55.7119 348.88h85.8916zM128.658 64.917
c17.7461 51.2969 37.1787 140.632 37.1787 286.195c0 158.87 -20.4766 250.997 -37.1777 295.788c-16.7012 -44.791 -37.166 -136.918 -37.166 -295.788c0 -145.563 19.4434 -234.898 37.165 -286.195z" />
    <glyph glyph-name="o" unicode="&#xf4;" horiz-adv-x="257" 
d="M171.604 699.991c28.2246 -50.6816 55.7246 -163.223 55.7246 -348.879c0 -197.586 -34.3369 -301.643 -59.1553 -351.095h-79.0293c-24.7939 49.4639 -59.1436 153.521 -59.1436 351.094c0 185.669 27.499 298.211 55.7119 348.88h85.8916zM128.658 64.917
c17.7461 51.2969 37.1787 140.632 37.1787 286.195c0 158.87 -20.4766 250.997 -37.1777 295.788c-16.7012 -44.791 -37.166 -136.918 -37.166 -295.788c0 -145.563 19.4434 -234.898 37.165 -286.195z" />
    <glyph glyph-name="p" unicode="p" horiz-adv-x="249" 
d="M118.908 696.523c50.1279 -25.6914 99.4443 -115.433 99.457 -256.852c0 -150.064 -59.4746 -222.601 -94.9307 -252.485l-10.9336 -9.61719v-177.563h-62.5v699.974h62.5zM112.501 266.966c21.6572 32.0254 44.3604 86.127 44.3604 172.707
c0 94.4512 -23.8711 150.421 -44.3604 178.916v-351.623z" />
    <glyph glyph-name="q" unicode="q" horiz-adv-x="258" 
d="M227.34 351.099c0 -162.843 -23.3291 -262.054 -45.417 -319.635l45.4053 -105.692h-62.5254l-31.8896 74.2334h-43.7695c-24.7939 49.4639 -59.1436 153.521 -59.1436 351.094c0 185.669 27.499 298.211 55.7119 348.88h85.9043
c28.2246 -50.6689 55.7236 -163.211 55.7236 -348.88zM128.646 646.887c-16.6885 -44.7783 -37.1533 -136.918 -37.1533 -295.788c0 -145.563 19.4316 -234.898 37.1533 -286.195c17.7588 51.2969 37.1904 140.645 37.1904 286.195
c0 158.87 -20.4893 250.997 -37.1904 295.788z" />
    <glyph glyph-name="r" unicode="r" horiz-adv-x="269" 
d="M218.364 439.672c0 -102.852 -27.9404 -169.263 -56.9404 -210.499l56.9287 -229.155h-62.5127l-43.3398 174.465v-174.477h-62.5v699.974h62.5l6.41992 -3.45605c50.1279 -25.6914 99.4443 -115.433 99.4443 -256.852zM112.513 618.589v-351.622
c21.6572 32.0254 44.3604 86.126 44.3604 172.706c0 94.4512 -23.8711 150.421 -44.3604 178.916z" />
    <glyph glyph-name="s" unicode="s" horiz-adv-x="198" 
d="M126.37 361.38c70.04 -175.77 51.75 -304.369 -55.9199 -393.139l-39.1299 47.4297c85.5596 70.5498 97.5996 173.16 37.9199 322.95c-68.0996 170.93 -46.6699 318.31 57.3604 394.239l36.2598 -49.6602c-79.9004 -58.3301 -93.54 -178.63 -36.4902 -321.82z" />
    <glyph glyph-name="t" unicode="t" horiz-adv-x="264" 
d="M234.13 699.99v-61.4902h-70.8203v-638.5h-62.5098v638.5h-70.7998v61.4902h204.13z" />
    <glyph glyph-name="u" unicode="u" horiz-adv-x="282" 
d="M170.266 699.979l61.4922 -0.000976562v-609.089c0 -50.1035 -40.7812 -90.873 -90.8848 -90.873c-50.1162 0 -90.873 40.7695 -90.873 90.873v609.102h61.4922v-609.113c0 -16.1973 13.1836 -29.3809 29.3809 -29.3809c16.209 0 29.3926 13.1836 29.3926 29.3809
v609.102z" />
    <glyph glyph-name="u" unicode="&#xfb;" horiz-adv-x="282" 
d="M170.266 699.979l61.4922 -0.000976562v-609.089c0 -50.1035 -40.7812 -90.873 -90.8848 -90.873c-50.1162 0 -90.873 40.7695 -90.873 90.873v609.102h61.4922v-609.113c0 -16.1973 13.1836 -29.3809 29.3809 -29.3809c16.209 0 29.3926 13.1836 29.3926 29.3809
v609.102z" />
    <glyph glyph-name="v" unicode="v" horiz-adv-x="262" 
d="M168.86 699.99h62.5088l-52.2598 -699.99h-96.8398l-52.2695 699.99h62.5l38.1699 -511.28z" />
    <glyph glyph-name="w" unicode="w" horiz-adv-x="421" 
d="M318.029 699.991h62.5146l-52.2686 -699.986h-87.3926l-30.623 357.268l-30.5488 -357.268h-87.4414l-52.2686 699.986h62.5l38.1738 -511.28l38.1865 511.28h62.8076l38.1738 -511.28z" />
    <glyph glyph-name="x" unicode="x" horiz-adv-x="298" 
d="M257.77 699.99l-77.6299 -350l77.6299 -349.99h-62.5l-46.3799 209.11l-46.3896 -209.11h-62.5l77.6396 349.99l-77.6396 350h62.5l46.3896 -209.11l46.3799 209.11h62.5z" />
    <glyph glyph-name="y" unicode="y" horiz-adv-x="270" 
d="M177.33 699.99h62.5205l-93.7803 -699.99h-62.5098l21.5801 161.16l-75.1396 538.83h62.5098l43.2598 -310.21z" />
    <glyph glyph-name="z" unicode="z" 
d="M245.48 699.99l-127.86 -626.001h115.56v-73.9697h-130.67v-0.0195312h-62.5098l130.4 638.5h-118.1v61.4902h193.18z" />
    <glyph glyph-name="verticalbar" unicode="|" horiz-adv-x="163" 
d="M112.513 -74.0879h-62.5127v848.206h62.5127v-848.206z" />
    <glyph glyph-name="nonbreakingspace" unicode="&#xa0;" horiz-adv-x="154" 
 />
    <glyph glyph-name="exclamdown" unicode="&#xa1;" horiz-adv-x="171" 
d="M116.63 -50.0898h-62.5v675.94h62.5v-675.94zM85.3896 658.15c-19.5596 0 -35.3896 15.8604 -35.3896 35.3906c0 19.5498 15.8301 35.3994 35.3896 35.3994c19.5303 0 35.3906 -15.8496 35.3906 -35.3994c0 -19.5303 -15.8604 -35.3906 -35.3906 -35.3906z" />
    <glyph glyph-name="cent" unicode="&#xa2;" horiz-adv-x="321" 
d="M174.902 66.4141c11.0439 19.2842 32.1846 68.6943 32.1973 68.6943h63.6445c-17.0459 -55.4287 -38.8506 -95.5088 -57.7529 -124.188l-7.30566 -10.9209h-2.2627v-106.467h-54.3711v106.467h-4.35352l-7.72363 10.9209
c-37.7188 57.2246 -86.9736 159.72 -86.9736 339.264c0 179.63 49.2305 282.026 86.8633 339.14l7.71094 12.0527h4.47656v105.336h54.3955v-105.323h2.16406l7.50195 -12.0645c18.8779 -28.6426 40.6709 -68.7109 57.7041 -124.188h-63.7178
s-21.1533 49.5996 -32.1973 68.8467c-30.9307 -53.9287 -63.4111 -140.509 -63.4111 -283.797c0 -143.104 32.4434 -229.745 63.4111 -283.771z" />
    <glyph glyph-name="yen" unicode="&#xa5;" horiz-adv-x="325" 
d="M274.605 699.997l-55.71 -393.007h23.625v-62.2051h-32.4434l-7.40332 -52.2188h39.8467v-62.2178h-48.665l-0.0371094 -0.233398v-130.104h-61.4922v130.338h-50.2393v62.2178h41.249l-7.53906 52.2188h-33.71v62.2051h24.707l-56.7939 393.007h64.0498
l49.0215 -393.007l49.0215 393.007h62.5127z" />
    <glyph glyph-name="section" unicode="&#xa7;" horiz-adv-x="297" 
d="M183.255 527.2c51.9238 -62.082 121.938 -146.067 -20.9326 -316.548c48.0869 -57.5195 105.951 -129.317 -21.0049 -259.041l-43.9541 43.0078c89.2246 91.168 61.8242 123.931 16.4307 178.216c-51.9238 62.082 -121.951 146.067 20.9316 316.548
c-48.0986 57.5195 -105.95 129.317 20.9932 259.041l43.9668 -43.0078c-89.2246 -91.168 -61.8242 -123.931 -16.4307 -178.216zM172.197 438.406c-69.3506 -85.9775 -69.584 -135.54 -47.3486 -176.765c69.3506 85.9775 69.584 135.54 47.3486 176.765z" />
    <glyph glyph-name="guillemotleft" unicode="&#xab;" horiz-adv-x="345" 
d="M190.497 701.385l-77.9961 -351.364l77.6885 -350.012h-62.5127l-77.6768 350.012l77.9844 351.364h62.5127zM294.738 701.385l-77.9834 -351.364l77.6885 -350.012h-62.5127l-77.6768 350.012l77.9717 351.364h62.5127z" />
    <glyph glyph-name="softhyphen" unicode="&#xad;" horiz-adv-x="0" 
 />
    <glyph glyph-name="plusminus" unicode="&#xb1;" horiz-adv-x="416" 
d="M176.698 241.266v126.686h-126.698v62.5h126.698v126.698h62.5v-126.698h126.686v-62.5h-126.686v-126.686h-62.5zM365.896 139.029h-315.896v62.5h315.896v-62.5z" />
    <glyph glyph-name="guillemotright" unicode="&#xbb;" horiz-adv-x="345" 
d="M232.237 350.021l-77.9961 351.364h62.5127l77.9844 -351.364l-77.6768 -350.012h-62.5127zM127.996 350.021l-77.9961 351.364h62.5127l77.9844 -351.364l-77.6768 -350.012h-62.5127z" />
    <glyph glyph-name="questiondown" unicode="&#xbf;" horiz-adv-x="274" 
d="M153.88 671.13c-19.5703 0 -35.4004 15.8496 -35.4004 35.3799c0 19.5596 15.8301 35.4092 35.4004 35.4092c19.5303 0 35.3799 -15.8496 35.3799 -35.4092c0 -19.5303 -15.8496 -35.3799 -35.3799 -35.3799zM152.7 424.53
c-91.9902 -201.91 -11.2998 -360.98 70.25 -428.211l-39.1396 -47.4404c-103.67 85.4805 -190.97 273.141 -87.0801 501.141c41.2197 90.5 40.6895 147.36 27.5791 185.15h63.6699c13.7402 -59.0195 2.07031 -128.64 -35.2793 -210.64z" />
    <glyph glyph-name="Agrave" unicode="&#xc0;" horiz-adv-x="262" 
d="M179.105 773.979l52.2803 -848.219h-62.5127l-5.78027 77.3691h-64.7998l-5.78027 -77.3691h-62.5127l52.2686 848.219h96.8369zM103.79 76.9316h53.7803l-26.8965 508.354zM157.57 800.174h-57.3477l-30.9551 79.0049h57.3477z" />
    <glyph glyph-name="Aacute" unicode="&#xc1;" horiz-adv-x="262" 
d="M179.118 773.979l52.2676 -848.219h-62.5127l-5.78027 77.3691h-64.7998l-5.78027 -77.3691h-62.5127l52.2686 848.219h96.8496zM103.803 76.9316h53.7803l-26.8965 508.354zM192.104 879.179l-30.9434 -79.0049h-57.3594l30.9551 79.0049h57.3477z" />
    <glyph glyph-name="Atilde" unicode="&#xc3;" horiz-adv-x="262" 
d="M181.319 821.426h-101.265v52.8096h101.265v-52.8096zM179.105 773.979l52.2803 -848.219h-62.5127l-5.78027 77.3691h-64.7998l-5.78027 -77.3691h-62.5127l52.2686 848.219h96.8369zM103.803 76.9316h53.7803l-26.8965 508.354z" />
    <glyph glyph-name="Adieresis" unicode="&#xc4;" horiz-adv-x="262" 
d="M179.12 774.13l52.2705 -848.22h-62.5195l-5.78027 77.3701h-64.7998l-5.78027 -77.3701h-62.5098l52.2695 848.22h96.8496zM103.811 77.0703h53.7695l-26.8799 508.35zM87.1396 800.33c-16.8301 0 -30.46 13.6396 -30.46 30.46s13.6299 30.46 30.46 30.46
c16.8203 0 30.46 -13.6396 30.46 -30.46s-13.6396 -30.46 -30.46 -30.46zM174.25 800.33c-16.8301 0 -30.4697 13.6396 -30.4697 30.46s13.6396 30.46 30.4697 30.46c16.8203 0 30.46 -13.6396 30.46 -30.46s-13.6396 -30.46 -30.46 -30.46z" />
    <glyph glyph-name="Aring" unicode="&#xc5;" horiz-adv-x="262" 
d="M179.11 774.13l52.2803 -848.22h-62.5195l-5.78027 77.3701h-64.7998l-5.78027 -77.3701h-62.5098l52.2695 848.22h96.8398zM103.791 77.0703h53.7803l-26.9004 508.35zM130.671 800.33c-16.8203 0 -30.46 13.6396 -30.46 30.46s13.6396 30.46 30.46 30.46
c16.8301 0 30.4697 -13.6396 30.4697 -30.46s-13.6396 -30.46 -30.4697 -30.46z" />
    <glyph glyph-name="AE" unicode="&#xc6;" horiz-adv-x="383" 
d="M342.32 712.65h-121.091v-221.87h57.5596v-73.79h-57.5596v-417.29h121.1v-73.79h-183.67v151.47h-60.5498l-15.5996 -151.47h-62.5098l89.1602 848.23h233.16v-61.4902zM105.699 151.17h52.9502v514.38z" />
    <glyph glyph-name="Ccedilla" unicode="&#xc7;" horiz-adv-x="247" 
d="M153.979 173.257l62.0957 -0.00292969c-11.7822 -84.2559 -30.709 -137.889 -46.3525 -170.036h0.0244141l-33.1689 -77.4424h-62.5254l31.9512 74.2334h-16.8613c-24.7939 49.4639 -59.1436 178.117 -59.1436 375.69c0 185.669 27.4873 347.762 55.7002 398.431h85.8916
c17.8574 -32.0498 35.3828 -88.9053 45.8857 -173.247h-61.8857c-7.42773 56.4746 -17.7461 95.5342 -26.9326 120.155c-16.7012 -44.791 -37.166 -186.468 -37.166 -345.338c0 -145.563 19.4434 -259.495 37.165 -310.792c8.9043 25.7529 18.2383 61.1104 25.3223 108.349z
" />
    <glyph glyph-name="Egrave" unicode="&#xc8;" horiz-adv-x="274" 
d="M233.614 712.548l-121.103 -0.000976562v-147.728h57.5684v-73.79h-57.5684v-491.479h121.103v-73.79h-183.614v848.28h183.614v-61.4922zM179.341 800.173h-57.3477l-30.9551 79.0049h57.3477z" />
    <glyph glyph-name="Eacute" unicode="&#xc9;" horiz-adv-x="274" 
d="M233.614 712.548l-121.103 -0.000976562v-147.728h57.5684v-73.79h-57.5684v-491.479h121.103v-73.79h-183.614v848.28h183.614v-61.4922zM197.825 879.178l-30.9551 -79.0049h-57.3477l30.9551 79.0049h57.3477z" />
    <glyph glyph-name="Ecircumflex" unicode="&#xca;" horiz-adv-x="274" 
d="M233.614 712.649l-121.103 0.000976562v-221.875h57.5684v-73.79h-57.5684v-417.284h121.103v-73.79h-183.614v848.23h183.614v-61.4922zM192.438 808.455h-101.265v52.8096h101.265v-52.8096z" />
    <glyph glyph-name="Igrave" unicode="&#xcc;" horiz-adv-x="168" 
d="M118.3 800.17h-57.3398l-30.96 79.0098h57.3496zM118.3 -74.25h-62.5195v848.31h62.5195v-848.31z" />
    <glyph glyph-name="Iacute" unicode="&#xcd;" horiz-adv-x="168" 
d="M138.303 879.179l-30.9551 -79.0049h-57.3477l30.9551 79.0049h57.3477zM112.525 -74.2529h-62.5254v848.317h62.5254v-848.317z" />
    <glyph glyph-name="Ntilde" unicode="&#xd1;" 
d="M172.983 700.006h62.5137v-774.084h-64.4316l-58.5527 452.593v-452.593h-62.5127v774.084h64.0498l58.9336 -393.449v393.449zM193.388 734.306h-101.265v52.8096h101.265v-52.8096z" />
    <glyph glyph-name="Ograve" unicode="&#xd2;" horiz-adv-x="258" 
d="M171.604 774.016c28.2246 -50.6689 55.7246 -237.272 55.7246 -422.929c0 -197.573 -34.3369 -375.862 -59.1553 -425.314h-79.0293c-24.7939 49.4521 -59.1436 227.741 -59.1436 425.314c0 185.656 27.499 372.26 55.7119 422.929h85.8916zM128.658 -9.3418
c17.7461 51.2969 37.1787 214.877 37.1787 360.416c0 158.87 -20.4766 325.046 -37.1777 369.837c-16.7012 -44.791 -37.166 -210.967 -37.166 -369.837c0 -145.551 19.4434 -309.119 37.165 -360.416zM158.852 800.173h-57.3477l-30.9424 79.0049h57.3477z" />
    <glyph glyph-name="Oacute" unicode="&#xd3;" horiz-adv-x="258" 
d="M171.604 774.016c28.2246 -50.6689 55.7246 -237.272 55.7246 -422.929c0 -197.573 -34.3369 -375.862 -59.1553 -425.314h-79.0293c-24.7939 49.4521 -59.1436 227.741 -59.1436 425.314c0 185.656 27.4873 372.26 55.7119 422.929h85.8916zM128.658 -9.3418
c17.7461 51.2969 37.1787 214.878 37.166 360.429c0 158.87 -20.4766 325.046 -37.1777 369.837c-16.6885 -44.791 -37.1533 -210.967 -37.1533 -369.837c0 -145.551 19.4434 -309.132 37.165 -360.429zM183.448 879.179l-30.9424 -79.0049h-57.3477l30.9424 79.0049
h57.3477z" />
    <glyph glyph-name="Otilde" unicode="&#xd5;" horiz-adv-x="258" 
d="M171.616 774.131c28.2246 -50.6689 55.7246 -237.37 55.7373 -423.026c0 -197.586 -34.3496 -375.74 -59.168 -425.192h-79.042c-24.7939 49.4639 -59.1436 227.618 -59.1436 425.191c0 185.669 27.4873 372.358 55.7119 423.027h85.9043zM128.659 -9.18945
c17.7588 51.2969 37.1904 214.741 37.1904 360.28c0 158.87 -20.4893 325.145 -37.1904 369.936c-16.7012 -44.791 -37.166 -211.065 -37.166 -369.936c0 -145.551 19.4316 -308.983 37.166 -360.28zM179.304 808.454h-101.265v52.8096h101.265v-52.8096z" />
    <glyph glyph-name="Odieresis" unicode="&#xd6;" horiz-adv-x="257" 
d="M85.1211 800.314c-16.8369 0 -30.4629 13.6387 -30.4629 30.4629s13.6387 30.4629 30.4629 30.4629s30.4629 -13.6387 30.4629 -30.4629s-13.6387 -30.4629 -30.4629 -30.4629zM172.231 800.314c-16.8242 0 -30.4629 13.6387 -30.4629 30.4629
s13.6387 30.4629 30.4629 30.4629s30.4629 -13.6387 30.4629 -30.4629s-13.6387 -30.4629 -30.4629 -30.4629zM171.616 774.119c28.2246 -50.6689 55.7246 -237.357 55.7373 -423.014c0 -197.586 -34.3496 -375.74 -59.168 -425.192h-79.042
c-24.7939 49.4639 -59.1436 227.618 -59.1436 425.191c0 185.669 27.499 372.346 55.7119 423.015h85.9043zM128.659 -9.1875c17.7588 51.2969 37.1904 214.741 37.1904 360.28c0 158.87 -20.4893 325.132 -37.1904 369.923
c-16.6885 -44.791 -37.1533 -211.053 -37.1533 -369.923c0 -145.551 19.4316 -308.983 37.1533 -360.28z" />
    <glyph glyph-name="Ugrave" unicode="&#xd9;" horiz-adv-x="282" 
d="M170.266 774.064h61.4922v-757.432c0 -50.1035 -40.7812 -90.873 -90.8848 -90.873c-50.1162 0 -90.873 40.7695 -90.873 90.873v757.432h61.4922v-757.42c0 -16.1973 13.1836 -29.3809 29.3809 -29.3809c16.209 0 29.3926 13.1836 29.3926 29.3809v757.42z
M174.854 800.174h-57.3467l-30.9551 79.0049h57.3594z" />
    <glyph glyph-name="Uacute" unicode="&#xda;" horiz-adv-x="282" 
d="M170.266 774.064h61.4922v-757.432c0 -50.1035 -40.7812 -90.873 -90.8848 -90.873c-50.1162 0 -90.873 40.7695 -90.873 90.873v757.432h61.4922v-757.42c0 -16.1973 13.1836 -29.3809 29.3809 -29.3809c16.209 0 29.3926 13.1836 29.3926 29.3809v757.42z
M192.292 879.179l-30.9551 -79.0049h-57.3477l30.9551 79.0049h57.3477z" />
    <glyph glyph-name="Udieresis" unicode="&#xdc;" horiz-adv-x="282" 
d="M97.3359 800.326c-16.8242 0 -30.4629 13.6387 -30.4629 30.4629s13.6387 30.4629 30.4629 30.4629s30.4629 -13.6387 30.4629 -30.4629s-13.6387 -30.4629 -30.4629 -30.4629zM184.445 800.326c-16.8242 0 -30.4629 13.6387 -30.4629 30.4629
s13.6387 30.4629 30.4629 30.4629s30.4629 -13.6387 30.4629 -30.4629s-13.6387 -30.4629 -30.4629 -30.4629zM170.266 774.118h61.4922v-757.334c0 -50.1162 -40.7812 -90.8857 -90.8848 -90.8857s-90.873 40.7812 -90.873 90.8848v757.346h61.4922v-757.346
c0 -16.209 13.1719 -29.3926 29.3809 -29.3926s29.3926 13.1963 29.3926 29.3936v757.334z" />
    <glyph glyph-name="Yacute" unicode="&#xdd;" horiz-adv-x="270" 
d="M177.322 774.052h62.5137l-103.577 -848.28h-62.5127l30.0938 246.435l-73.8398 601.846h62.5127l42.3311 -347.97zM195.979 879.178l-30.9551 -79.0049h-57.3477l30.9551 79.0049h57.3477z" />
    <glyph glyph-name="germandbls" unicode="&#xdf;" horiz-adv-x="290" 
d="M239.739 591.57l0.000976562 -29.959c0 -30.8076 -12.8145 -58.6143 -33.3652 -78.501c20.5381 -19.9111 33.3652 -47.7422 33.3652 -78.5498v-329.08c0 -55.416 -41.3965 -101.215 -94.8701 -108.422v62.918c19.2959 6.24805 33.3779 24.167 33.3779 45.5049v329.08
c0 26.4902 -21.5586 48.0371 -48.0488 48.0371h-17.6855v-452.58h-62.5127v591.552c0 55.416 38.6904 108.422 94.8691 108.422c58.6016 0 94.8691 -53.0059 94.8691 -108.422zM178.248 561.624l-0.000976562 29.9463c0 21.3379 -9.11328 49.2188 -33.3779 49.2188
s-32.0498 -28.1514 -32.0498 -50.5586l-0.307617 -76.1396s20.1816 -0.147461 21.4365 -0.18457l-0.0244141 0.123047c31.3613 -0.344727 44.3242 26.2568 44.3242 47.5947z" />
    <glyph glyph-name="agrave" unicode="&#xe0;" horiz-adv-x="262" 
d="M179.118 699.996l52.2676 -699.986h-62.5127l-5.78027 77.3691h-64.7998l-5.78027 -77.3691h-62.5127l52.2686 699.986h96.8496zM103.814 151.169h53.7803l-26.8965 360.108zM162.059 727.717h-57.3477l-30.9424 78.9922h57.3477z" />
    <glyph glyph-name="aacute" unicode="&#xe1;" horiz-adv-x="262" 
d="M179.118 699.989l52.2676 -699.986h-62.5127l-5.78027 77.3691h-64.7998l-5.78027 -77.3691h-62.5127l52.2686 699.986h96.8496zM103.814 151.175h53.7803l-26.8965 360.108zM188.107 806.715l-30.9551 -79.0049h-57.3477l30.9551 79.0049h57.3477z" />
    <glyph glyph-name="atilde" unicode="&#xe3;" horiz-adv-x="262" 
d="M179.118 699.989l52.2676 -699.974h-62.5127l-5.78027 77.3691h-64.7998l-5.78027 -77.3691h-62.5127l52.2686 699.974h96.8496zM103.803 151.175h53.7803l-26.8965 360.108zM181.319 734.314h-101.265v52.8096h101.265v-52.8096z" />
    <glyph glyph-name="adieresis" unicode="&#xe4;" horiz-adv-x="262" 
d="M179.12 700l52.2705 -699.99h-62.5195l-5.78027 77.3701h-64.7998l-5.78027 -77.3701h-62.5098l52.2695 699.99h96.8496zM103.811 151.17h53.7695l-26.8799 360.11zM87.1396 726.18c-16.8301 0 -30.46 13.6396 -30.46 30.46c0 16.8301 13.6299 30.46 30.46 30.46
c16.8203 0 30.46 -13.6299 30.46 -30.46c0 -16.8203 -13.6396 -30.46 -30.46 -30.46zM174.25 726.18c-16.8301 0 -30.4697 13.6396 -30.4697 30.46c0 16.8301 13.6396 30.46 30.4697 30.46c16.8203 0 30.46 -13.6299 30.46 -30.46c0 -16.8203 -13.6396 -30.46 -30.46 -30.46
z" />
    <glyph glyph-name="aring" unicode="&#xe5;" horiz-adv-x="262" 
d="M179.11 700l52.2803 -699.99h-62.5195l-5.78027 77.3701h-64.7998l-5.78027 -77.3701h-62.5098l52.2695 699.99h96.8398zM103.791 151.17h53.7803l-26.9004 360.11zM130.671 726.18c-16.8203 0 -30.46 13.6396 -30.46 30.46c0 16.8301 13.6396 30.46 30.46 30.46
c16.8301 0 30.4697 -13.6299 30.4697 -30.46c0 -16.8203 -13.6396 -30.46 -30.4697 -30.46z" />
    <glyph glyph-name="ae" unicode="&#xe6;" horiz-adv-x="393" 
d="M352.32 638.5l-121.09 -0.000976562v-147.72h57.5596v-73.79h-57.5596v-343.18h121.1v-73.79h-183.67v77.3701h-66.1904l-9.95996 -77.3701h-62.5098l89.1602 699.99h112v-0.00976562h121.16v-61.5zM111.971 151.169h56.6904v440.23z" />
    <glyph glyph-name="ccedilla" unicode="&#xe7;" horiz-adv-x="248" 
d="M153.979 173.256l62.0957 0.0107422c-11.7822 -84.2559 -30.709 -137.889 -46.3525 -170.036h0.0244141l-33.1689 -77.4424h-62.5254l31.9512 74.2334h-16.8613c-24.7939 49.4639 -59.1436 153.521 -59.1436 351.094c0 185.656 27.4873 298.211 55.7002 348.88h85.8916
c17.8574 -32.0498 35.3828 -88.9053 45.8857 -173.247h-61.8857c-7.42773 56.4619 -17.7461 95.5215 -26.9326 120.143c-16.7012 -44.791 -37.166 -136.918 -37.166 -295.788c0 -145.563 19.4434 -234.898 37.165 -286.195c8.9043 25.7529 18.2383 61.1104 25.3223 108.349z
" />
    <glyph glyph-name="egrave" unicode="&#xe8;" horiz-adv-x="274" 
d="M176.021 734.309h-57.3477l-30.9424 79.0049h57.3477zM233.614 638.504h-121.103v-147.728h57.5684v-73.79h-57.5684v-343.187h121.103v-73.79h-183.614v699.986h183.614v-61.4922z" />
    <glyph glyph-name="eacute" unicode="&#xe9;" horiz-adv-x="274" 
d="M198.244 813.313l-30.9424 -79.0049h-57.3477l30.9424 79.0049h57.3477zM233.603 638.504h-121.09v-147.728h57.5566v-73.79h-57.5566v-343.187h121.09v-73.79h-183.603v699.986h183.603v-61.4922z" />
    <glyph glyph-name="ecircumflex" unicode="&#xea;" horiz-adv-x="274" 
d="M233.614 638.504h-121.103v-147.728h57.5684v-73.79h-57.5684v-343.187h121.103v-73.79h-183.614v699.986h183.614v-61.4922zM192.438 734.309h-101.265v52.8096h101.265v-52.8096z" />
    <glyph glyph-name="edieresis" unicode="&#xeb;" horiz-adv-x="274" 
d="M233.614 638.508h-121.103v-147.728h57.5684v-73.79h-57.5684v-343.187h121.103v-73.79h-183.614v699.986h183.614v-61.4922zM98.2461 726.183c-16.8242 0 -30.4639 13.6387 -30.4639 30.4629s13.6387 30.4629 30.4629 30.4629
c16.8369 0 30.4639 -13.6387 30.4639 -30.4629s-13.6387 -30.4629 -30.4629 -30.4629zM185.354 726.183c-16.8242 0 -30.4639 13.6387 -30.4639 30.4629s13.6387 30.4629 30.4629 30.4629c16.8369 0 30.4639 -13.6387 30.4639 -30.4629s-13.6387 -30.4629 -30.4629 -30.4629
z" />
    <glyph glyph-name="igrave" unicode="&#xec;" horiz-adv-x="168" 
d="M60.96 727.71l-30.96 79h57.3496l30.9502 -79h-57.3398zM118.3 700v-700h-62.5195v700h62.5195z" />
    <glyph glyph-name="iacute" unicode="&#xed;" horiz-adv-x="168" 
d="M138.303 806.714l-30.9551 -79.0049h-57.3477l30.9551 79.0049h57.3477zM50.0127 0.00195312v699.999h62.5254v-699.999h-62.5254z" />
    <glyph glyph-name="idieresis" unicode="&#xef;" horiz-adv-x="208" 
d="M90.9297 756.65c0 -16.8301 -13.6396 -30.4697 -30.4697 -30.4697c-16.8203 0 -30.46 13.6396 -30.46 30.4697c0 16.8203 13.6396 30.46 30.46 30.46c16.8301 0 30.4697 -13.6396 30.4697 -30.46zM147.569 787.11c16.8301 0 30.4697 -13.6396 30.4697 -30.46
c0 -16.8301 -13.6396 -30.4697 -30.4697 -30.4697c-16.8203 0 -30.46 13.6396 -30.46 30.4697c0 16.8203 13.6396 30.46 30.46 30.46zM135.27 0h-62.5098v699.99h62.5098v-699.99z" />
    <glyph glyph-name="ntilde" unicode="&#xf1;" 
d="M172.983 700.008h62.5137v-699.986h-64.4316l-58.5527 378.495v-378.495h-62.5127v699.986h64.0498l58.9336 -380.844v380.844zM193.388 734.308h-101.265v52.8096h101.265v-52.8096z" />
    <glyph glyph-name="ograve" unicode="&#xf2;" horiz-adv-x="258" 
d="M171.62 699.98c28.2305 -50.6699 55.7295 -163.21 55.7295 -348.88c0 -197.58 -34.3398 -301.64 -59.1602 -351.09h-79.04c-24.79 49.46 -59.1396 153.52 -59.1396 351.09c0 185.67 27.5 298.21 55.71 348.88h85.9004zM128.659 64.9102
c17.7598 51.29 37.1904 140.64 37.1904 286.189c0 158.87 -20.4902 251 -37.1904 295.79c-16.7002 -44.79 -37.1602 -136.92 -37.1602 -295.79c0 -145.56 19.4404 -234.899 37.1602 -286.189zM161.811 727.72h-57.3496l-30.9404 78.9902h57.3496z" />
    <glyph glyph-name="oacute" unicode="&#xf3;" horiz-adv-x="258" 
d="M171.616 699.989c28.2246 -50.6689 55.7373 -163.223 55.7373 -348.879c0 -197.586 -34.3496 -301.643 -59.168 -351.095h-79.042c-24.7939 49.4639 -59.1436 153.521 -59.1436 351.094c0 185.669 27.499 298.211 55.7119 348.88h85.9043zM128.659 64.915
c17.7715 51.2969 37.2031 140.632 37.1904 286.195c0 158.87 -20.4893 250.997 -37.1904 295.788c-16.6885 -44.791 -37.1533 -136.918 -37.1533 -295.788c0 -145.563 19.4316 -234.898 37.1533 -286.195zM190.053 806.716l-30.9551 -79.0049h-57.3477l30.9551 79.0049
h57.3477z" />
    <glyph glyph-name="otilde" unicode="&#xf5;" horiz-adv-x="257" 
d="M171.616 699.983c28.2246 -50.6689 55.7246 -163.21 55.7373 -348.879c0 -197.586 -34.3496 -301.643 -59.168 -351.095h-79.042c-24.7939 49.4639 -59.1436 153.521 -59.1436 351.094c0 185.656 27.4873 298.211 55.7119 348.88h85.9043zM128.659 64.9092
c17.7588 51.2969 37.1904 140.645 37.1904 286.195c0 158.87 -20.4893 250.997 -37.1904 295.788c-16.7012 -44.791 -37.166 -136.918 -37.166 -295.788c0 -145.563 19.4316 -234.898 37.166 -286.195zM179.304 734.31h-101.265v52.8096h101.265v-52.8096z" />
    <glyph glyph-name="odieresis" unicode="&#xf6;" horiz-adv-x="257" 
d="M85.1211 726.179c-16.8369 0 -30.4629 13.6387 -30.4629 30.4629s13.6387 30.4629 30.4629 30.4629s30.4629 -13.6387 30.4629 -30.4629s-13.6387 -30.4629 -30.4629 -30.4629zM172.231 726.179c-16.8242 0 -30.4629 13.6387 -30.4629 30.4629
s13.6387 30.4629 30.4629 30.4629s30.4629 -13.6387 30.4629 -30.4629s-13.6387 -30.4629 -30.4629 -30.4629zM171.616 699.983c28.2246 -50.6689 55.7246 -163.21 55.7373 -348.879c0 -197.586 -34.3496 -301.643 -59.168 -351.095h-79.042
c-24.7939 49.4639 -59.1436 153.521 -59.1436 351.094c0 185.656 27.499 298.211 55.7119 348.88h85.9043zM128.659 64.9092c17.7588 51.2969 37.1904 140.645 37.1904 286.195c0 158.87 -20.4893 250.997 -37.1904 295.788
c-16.6885 -44.791 -37.1533 -136.918 -37.1533 -295.788c0 -145.563 19.4316 -234.898 37.1533 -286.195z" />
    <glyph glyph-name="oslash" unicode="&#xf8;" horiz-adv-x="258" 
d="M171.591 699.989c28.2246 -50.6689 55.7236 -163.223 55.7363 -348.879c0 -197.586 -34.3369 -301.643 -59.1553 -351.095h-79.0293c-24.7939 49.4639 -59.1436 153.521 -59.1436 351.094c0 185.669 27.4873 298.211 55.7002 348.88h85.8916zM128.645 646.886
c-16.7012 -44.7783 -37.166 -136.904 -37.166 -295.787c0 -16.627 0.283203 -32.4307 0.762695 -47.6191l64.5049 213.93c-7.48926 61.5283 -18.4102 103.527 -28.1016 129.477zM128.645 64.916c17.7461 51.2969 37.1777 140.632 37.1777 286.195
c0 9.70312 -0.0859375 19.1357 -0.233398 28.335l-62.2295 -206.403c7.08398 -47.127 16.3936 -82.4111 25.2852 -108.127z" />
    <glyph glyph-name="ugrave" unicode="&#xf9;" horiz-adv-x="282" 
d="M170.266 699.996h61.4922v-609.102c0 -50.1162 -40.7812 -90.8857 -90.8848 -90.8857c-50.1162 0 -90.873 40.7812 -90.873 90.8848v609.102h61.4922v-609.102c0 -16.209 13.1836 -29.3926 29.3809 -29.3926c16.209 0 29.3926 13.1963 29.3926 29.3936v609.102z
M177.399 727.717h-57.3477l-30.9551 78.9922h57.3477z" />
    <glyph glyph-name="uacute" unicode="&#xfa;" horiz-adv-x="282" 
d="M170.266 699.989l61.4922 -0.000976562v-609.089c0 -50.1162 -40.7812 -90.8857 -90.8848 -90.8857c-50.1162 0 -90.873 40.7812 -90.873 90.8848v609.102h61.4922v-609.113c0 -16.209 13.1836 -29.3926 29.3809 -29.3926c16.209 0 29.3926 13.1963 29.3926 29.3936
v609.102zM199.794 806.714l-30.9434 -79.0049h-57.3594l30.9551 79.0049h57.3477z" />
    <glyph glyph-name="udieresis" unicode="&#xfc;" horiz-adv-x="282" 
d="M97.3359 726.179c-16.8242 0 -30.4629 13.6387 -30.4629 30.4629s13.6387 30.4629 30.4629 30.4629s30.4629 -13.6387 30.4629 -30.4629s-13.6387 -30.4629 -30.4629 -30.4629zM184.445 726.179c-16.8242 0 -30.4629 13.6387 -30.4629 30.4629
s13.6387 30.4629 30.4629 30.4629s30.4629 -13.6387 30.4629 -30.4629s-13.6387 -30.4629 -30.4629 -30.4629zM170.266 699.971h61.4922v-609.089c0 -50.1162 -40.7812 -90.8857 -90.8848 -90.8857s-90.873 40.7812 -90.873 90.8848v609.102h61.4922v-609.102
c0 -16.209 13.1719 -29.3926 29.3809 -29.3926s29.3926 13.1963 29.3926 29.3936v609.089z" />
    <glyph glyph-name="yacute" unicode="&#xfd;" horiz-adv-x="270" 
d="M177.334 700.001h62.5127l-93.7754 -699.986h-62.5127l21.584 161.158l-75.1426 538.828h62.5127l43.2529 -310.214zM195.475 806.714l-30.9551 -79.0049h-57.3477l30.9551 79.0049h57.3477z" />
    <glyph glyph-name="ydieresis" unicode="&#xff;" horiz-adv-x="270" 
d="M91.3701 726.18c-16.8398 0 -30.46 13.6396 -30.4795 30.46c0 16.8301 13.6396 30.46 30.4795 30.46c16.8203 0 30.46 -13.6299 30.46 -30.46c0 -16.8203 -13.6504 -30.46 -30.46 -30.46zM178.47 726.18c-16.8203 0 -30.4512 13.6396 -30.4707 30.46
c0 16.8301 13.6504 30.46 30.4707 30.46c16.8301 0 30.46 -13.6299 30.46 -30.46c0 -16.8203 -13.6299 -30.46 -30.46 -30.46zM177.329 700.01h62.5205l-93.7803 -699.99h-62.5098l21.5801 161.16l-75.1396 538.83h62.5098l43.2695 -310.22z" />
    <glyph glyph-name="Cacute" unicode="&#x106;" horiz-adv-x="247" 
d="M128.651 -9.16406c8.91602 25.7529 18.251 61.1104 25.3467 108.349h62.0947c-12.1631 -87.0605 -31.9883 -141.493 -47.915 -173.247h-79.0293c-24.7939 49.4521 -59.1436 227.582 -59.1436 425.168c0 185.656 27.4873 372.566 55.7002 423.248h85.9043
c17.8447 -32.0498 35.3701 -88.9053 45.8604 -173.247h-61.8857c-7.42773 56.4619 -17.7461 95.5215 -26.9326 120.143c-16.6885 -44.791 -37.1533 -211.274 -37.1533 -370.145c0 -145.551 19.4316 -308.972 37.1533 -360.269zM194.043 887.67l-30.9551 -79.0049h-57.335
l30.9551 79.0049h57.335z" />
    <glyph glyph-name="cacute" unicode="&#x107;" horiz-adv-x="248" 
d="M190.813 813.304l-30.9551 -79.0049h-57.335l30.9424 79.0049h57.3477zM128.657 64.8984c8.9043 25.7529 18.2393 61.1104 25.335 108.349h62.0947c-12.1631 -87.0605 -31.9883 -141.493 -47.915 -173.248h-79.0293c-24.7939 49.4521 -59.1436 153.509 -59.1436 351.095
c0 185.669 27.4873 298.211 55.7002 348.893h85.916c17.8447 -32.0498 35.3818 -88.9053 45.8604 -173.247h-61.8857c-7.42773 56.4619 -17.7461 95.5215 -26.9326 120.143c-16.7012 -44.791 -37.166 -136.918 -37.166 -295.788
c0 -145.551 19.4316 -234.898 37.166 -286.195z" />
    <glyph glyph-name="Ccaron" unicode="&#x10c;" horiz-adv-x="247" 
d="M174.37 808.665h-101.277v52.8096h101.277v-52.8096zM128.645 -9.16406c8.9043 25.7529 18.2383 61.1123 25.3467 108.362h62.0947c-12.1631 -87.0605 -31.9883 -141.493 -47.915 -173.247h-79.0293c-24.7939 49.4639 -59.1436 227.594 -59.1436 425.167
c0 185.656 27.4873 372.566 55.7002 423.235h85.9043c17.8447 -32.0498 35.3818 -88.9053 45.8604 -173.247h-61.8857c-7.42773 56.4619 -17.7461 95.5215 -26.9326 120.143c-16.6885 -44.791 -37.1533 -211.274 -37.1533 -370.145
c0 -145.563 19.4316 -308.972 37.1533 -360.269z" />
    <glyph glyph-name="ccaron" unicode="&#x10d;" horiz-adv-x="248" 
d="M174.37 734.308h-101.277v52.8096h101.277v-52.8096zM128.645 64.9072c8.9043 25.7529 18.2383 61.1113 25.3467 108.361h62.0947c-12.1631 -87.0605 -31.9883 -141.493 -47.915 -173.247h-79.0293c-24.7939 49.4639 -59.1436 153.521 -59.1436 351.094
c0 185.656 27.4873 298.211 55.7002 348.88h85.9043c17.8447 -32.0498 35.3818 -88.9053 45.8604 -173.247h-61.8857c-7.42773 56.4619 -17.7461 95.5215 -26.9326 120.143c-16.6885 -44.791 -37.1533 -136.918 -37.1533 -295.788
c0 -145.563 19.4316 -234.898 37.1533 -286.195z" />
    <glyph glyph-name="Dslash" unicode="&#x110;" horiz-adv-x="292" 
d="M152.809 768.729c51.5791 -44.2002 109.492 -228.554 109.492 -421.97c0 -204.215 -67.4072 -376.318 -106.147 -416.829h-74.6016v389.342h-31.5449v61.4922h31.5449v393.352h63.9766zM144.064 16.8057c26.835 45.8486 65.1689 196.785 65.1816 329.952
c0 144.519 -37.3135 293.514 -65.1816 341.896v-307.89h27.8682v-61.4922h-27.8682v-302.466z" />
    <glyph glyph-name="dmacron" unicode="&#x111;" horiz-adv-x="293" 
d="M152.82 694.608c51.5674 -44.1885 109.48 -154.432 109.48 -347.848c0 -204.215 -67.4072 -306.229 -106.147 -346.74h-74.6016v319.241h-31.5449v61.4922h31.5449v319.241h63.9883zM144.063 86.8838c26.835 45.8604 56.7451 126.71 56.7451 259.889
c0 144.519 -31.4102 227.68 -56.7451 267.772v-233.779h27.8682v-61.4922h-27.8682v-232.39z" />
    <glyph glyph-name="Ecaron" unicode="&#x11a;" horiz-adv-x="274" 
d="M233.614 712.651l-121.103 0.000976562v-221.875h57.5684v-73.79h-57.5684v-417.284h121.103v-73.79h-183.614v848.23h183.614v-61.4922zM192.438 808.457h-101.265v52.8096h101.265v-52.8096z" />
    <glyph glyph-name="ecaron" unicode="&#x11b;" horiz-adv-x="274" 
d="M233.614 638.504h-121.103v-147.728h57.5684v-73.79h-57.5684v-343.187h121.103v-73.79h-183.614v699.986h183.614v-61.4922zM192.438 734.309h-101.265v52.8096h101.265v-52.8096z" />
    <glyph glyph-name="Lacute" unicode="&#x139;" horiz-adv-x="234" 
d="M112.525 -12.748h81.2305v-61.4922h-143.756v848.305h62.5254v-786.812zM138.303 879.179l-30.9551 -79.0049h-57.3477l30.9551 79.0049h57.3477z" />
    <glyph glyph-name="lacute" unicode="&#x13a;" horiz-adv-x="234" 
d="M112.525 61.5137l81.2305 0.000976562v-61.4922h-143.756v699.974h62.5254v-638.482zM138.29 806.71l-30.9424 -78.9922h-57.3477l30.9424 78.9922h57.3477z" />
    <glyph glyph-name="Lslash" unicode="&#x141;" horiz-adv-x="264" 
d="M141.918 -12.748h81.2305v-61.4922h-143.756v393.203l-29.3936 -9.33398v52.8096l29.3936 9.33398v402.292h62.5254v-382.43l28.2246 8.97754v-52.8096l-28.2246 -8.97754v-351.573z" />
    <glyph glyph-name="lslash" unicode="&#x142;" horiz-adv-x="264" 
d="M143 61.5137h81.2305v-61.4922h-143.756v313.94l-30.4756 -9.43262v52.8096l30.4756 9.43262v333.225h62.5254v-313.842l30.1924 9.34668v-52.8096l-30.1924 -9.34668v-271.831z" />
    <glyph glyph-name="Nacute" unicode="&#x143;" 
d="M172.983 774.052l62.5137 0.000976562v-848.28h-64.4316l-58.5527 440.441v-440.454h-62.5127v848.292h64.0498l58.9336 -504.528v504.528zM194.199 879.18l-30.9434 -79.0049h-57.3594l30.9551 79.0049h57.3477z" />
    <glyph glyph-name="nacute" unicode="&#x144;" 
d="M172.983 700.009h62.5137v-699.986h-64.4316l-58.5527 378.507v-378.507h-62.5127v699.986h64.0498l58.9336 -380.831v380.831zM198.799 806.709l-30.9551 -78.9922h-57.3477l30.9551 78.9922h57.3477z" />
    <glyph glyph-name="Ncaron" unicode="&#x147;" 
d="M172.983 774.054l62.5137 0.000976562v-848.28h-64.4316l-58.5527 440.441v-440.454h-62.5127v848.292h64.0498l58.9336 -504.528v504.528zM193.375 821.428h-101.265v52.8096h101.265v-52.8096z" />
    <glyph glyph-name="ncaron" unicode="&#x148;" 
d="M172.983 700.009h62.5137v-699.986h-64.4316l-58.5527 378.507v-378.507h-62.5127v699.986h64.0498l58.9336 -380.831v380.831zM193.375 734.309h-101.265v52.8096h101.265v-52.8096z" />
    <glyph glyph-name="oe" unicode="&#x153;" horiz-adv-x="337" 
d="M296.112 638.493h-100.404c16.2588 -56.3262 29.0117 -139.144 31.2627 -251.6h51.5674v-73.79h-51.665c-2.55762 -108.238 -15.8154 -185.337 -31.0654 -239.302h100.306v-73.79h-206.97c-24.7939 49.4639 -59.1436 153.521 -59.1436 351.094
c0 185.669 27.4873 298.211 55.7119 348.88h210.4v-61.4922zM128.657 64.9092c17.7461 51.2969 37.1777 140.645 37.1777 286.195c0 158.87 -20.4766 250.997 -37.1777 295.788c-16.6885 -44.791 -37.165 -136.918 -37.165 -295.788
c0 -145.551 19.4434 -234.898 37.165 -286.195z" />
    <glyph glyph-name="Racute" unicode="&#x154;" horiz-adv-x="287" 
d="M246.811 -74.2402h-62.5264l-71.7852 315.613v-315.625h-62.5v848.268h62.5l6.41992 -3.45605c50.1279 -25.6914 99.4443 -115.433 99.4443 -256.852c0 -103.27 -28.1631 -169.828 -57.2852 -211.027zM112.511 692.637v-351.622
c21.6572 32.0254 44.3604 86.126 44.3604 172.706c0 94.4512 -23.8711 150.421 -44.3604 178.916zM166.537 879.179l-30.9424 -79.0049h-57.3477l30.9424 79.0049h57.3477z" />
    <glyph glyph-name="racute" unicode="&#x155;" horiz-adv-x="258" 
d="M218.364 439.688c0 -102.852 -27.9414 -169.262 -56.9287 -210.498l56.9287 -229.168h-62.5127l-43.3516 174.465v-174.465h-62.5v699.986h62.5l6.41992 -3.45605c50.1279 -25.6914 99.4443 -115.433 99.4443 -256.864zM112.513 618.618v-351.622
c21.6699 32.0127 44.373 86.1133 44.373 172.693c0 94.4639 -23.8838 150.434 -44.373 178.929zM167.265 805.984l-30.9541 -79.0049h-57.3477l30.9424 79.0049h57.3594z" />
    <glyph glyph-name="Sacute" unicode="&#x15a;" horiz-adv-x="198" 
d="M126.362 361.934c70.0391 -195.003 51.7393 -337.663 -55.9082 -436.161l-39.1338 52.625c85.5596 78.2666 97.5996 192.101 37.9277 358.276c-68.1084 189.641 -46.6719 353.147 57.3604 437.392l36.2432 -55.0967
c-79.9023 -64.7021 -93.541 -198.177 -36.4893 -357.035zM155.411 879.18l-30.9424 -79.0049h-57.3477l30.9424 79.0049h57.3477z" />
    <glyph glyph-name="sacute" unicode="&#x15b;" horiz-adv-x="208" 
d="M177.989 806.709l-30.9541 -78.9922h-57.3477l30.9424 78.9922h57.3594zM177.99 699.996c-95.2998 -87.417 -108.386 -196.711 -51.6289 -339.163c70.0391 -175.769 51.751 -304.36 -55.9209 -393.143l-39.1338 47.4346c85.5596 70.543 97.6123 173.16 37.9287 322.942
c-59.4629 149.216 -50.6445 280.464 21.7559 361.929h86.999z" />
    <glyph glyph-name="Scaron" unicode="&#x160;" horiz-adv-x="199" 
d="M127.29 380.08c70.0498 -201.27 51.751 -348.501 -55.9092 -450.141l-39.1396 54.3203c85.5596 80.7803 97.5996 198.261 37.9297 369.751c-60.7305 174.5 -50.0801 327.38 26.6299 420.14l49.1504 -43.2002c-63.6504 -71.6299 -71.1309 -200.09 -18.6611 -350.87z
M156.591 808.419h-101.26v52.8096h101.26v-52.8096z" />
    <glyph glyph-name="scaron" unicode="&#x161;" horiz-adv-x="198" 
d="M126.29 366.51c70.04 -175.78 51.75 -304.36 -55.9102 -393.13l-39.1299 47.4404c85.5596 70.54 97.6094 173.16 37.9297 322.93c-60.7305 152.4 -50.0801 285.92 26.6201 366.93l49.1602 -37.7305c-63.6602 -62.5596 -71.1299 -174.76 -18.6699 -306.439zM155.59 734.31
h-101.27v52.8096h101.27v-52.8096z" />
    <glyph glyph-name="Uring" unicode="&#x16e;" horiz-adv-x="282" 
d="M140.885 800.326c-16.8242 0 -30.4766 13.6387 -30.4766 30.4629s13.6514 30.4629 30.4756 30.4629c16.8369 0 30.4639 -13.6387 30.4639 -30.4629s-13.6387 -30.4629 -30.4629 -30.4629zM170.265 774.118h61.4922v-757.334
c0 -50.1162 -40.7812 -90.8857 -90.8848 -90.8857s-90.873 40.7812 -90.873 90.8848v757.346h61.4922v-757.346c0 -16.209 13.1836 -29.3926 29.3809 -29.3926c16.209 0 29.3926 13.1963 29.3926 29.3936v757.334z" />
    <glyph glyph-name="uring" unicode="&#x16f;" horiz-adv-x="282" 
d="M140.885 726.179c-16.8242 0 -30.4766 13.6387 -30.4766 30.4629s13.6514 30.4629 30.4756 30.4629c16.8369 0 30.4639 -13.6387 30.4639 -30.4629s-13.6387 -30.4629 -30.4629 -30.4629zM170.265 699.971h61.4922v-609.089
c0 -50.1162 -40.7812 -90.8857 -90.8848 -90.8857s-90.873 40.7812 -90.873 90.8848v609.102h61.4922v-609.102c0 -16.209 13.1836 -29.3926 29.3809 -29.3926c16.209 0 29.3926 13.1963 29.3926 29.3936v609.089z" />
    <glyph glyph-name="Ydieresis" unicode="&#x178;" horiz-adv-x="270" 
d="M91.3701 800.33c-16.8398 0 -30.46 13.6396 -30.46 30.46c0 16.8301 13.6201 30.4697 30.46 30.4697c16.8203 0 30.46 -13.6396 30.46 -30.4697c0 -16.8203 -13.6504 -30.46 -30.46 -30.46zM178.47 800.33c-16.8203 0 -30.4512 13.6396 -30.4707 30.46
c0 16.8301 13.6504 30.4697 30.4707 30.4697c16.8301 0 30.4697 -13.6396 30.46 -30.4697c0 -16.8203 -13.6299 -30.46 -30.46 -30.46zM177.318 774.15h62.5303l-101.38 -848.25h-62.5098l28.6699 239.92l-74.6299 608.33h62.5098l42.79 -351.75z" />
    <glyph glyph-name="Zacute" unicode="&#x179;" horiz-adv-x="265" 
d="M235.48 774.04l-130.5 -774.28h118.2v-73.9902h-193.18l132.6 786.78h-120.3v61.4902h193.18zM201.49 879.18l-30.96 -79.0098h-57.3398l30.9502 79.0098h57.3496z" />
    <glyph glyph-name="zacute" unicode="&#x17a;" horiz-adv-x="265" 
d="M235.48 700l-127.85 -625.98h115.55v-73.9902h-130.67v-0.00976562h-62.5098l130.41 638.5h-118.11v61.4805h193.18zM197.641 805.979l-30.96 -79h-57.3398l30.9502 79h57.3496z" />
    <glyph glyph-name="Zdot" unicode="&#x17b;" horiz-adv-x="265" 
d="M235.48 774.04l-130.501 -774.28h118.2v-73.9902h-193.18l132.61 786.78h-120.31v61.4902h193.18zM135.409 800.17c-16.8203 0 -30.46 13.6396 -30.46 30.4697c0 16.8203 13.6396 30.46 30.46 30.46s30.46 -13.6396 30.46 -30.46
c0 -16.8301 -13.6396 -30.4697 -30.46 -30.4697z" />
    <glyph glyph-name="zdot" unicode="&#x17c;" horiz-adv-x="265" 
d="M132.74 726.18c-16.8203 0 -30.46 13.6299 -30.46 30.46c0 16.8398 13.6396 30.4697 30.46 30.4697c16.8398 0 30.46 -13.6396 30.46 -30.4697c0 -16.8203 -13.6396 -30.46 -30.46 -30.46zM235.48 700l-127.85 -625.98h115.55v-73.9902h-130.67v-0.00976562h-62.5098
l130.41 638.5h-118.11v61.4805h193.18z" />
    <glyph glyph-name="Zcaron" unicode="&#x17d;" horiz-adv-x="265" 
d="M235.48 774.12l-130.48 -774.2h118.18v-73.9902h-130.66l-0.00976562 -0.00976562h-62.5098l132.61 786.7h-120.31v61.5h193.18zM183.37 808.42h-101.26v52.8096h101.26v-52.8096z" />
    <glyph glyph-name="zcaron" unicode="&#x17e;" horiz-adv-x="265" 
d="M235.48 700.01l-127.85 -625.99h115.55v-73.9902h-130.66l-0.00976562 -0.00976562h-62.5098l130.41 638.5h-118.11v61.4902h193.18zM183.371 734.31h-101.26v52.8096h101.26v-52.8096z" />
    <glyph glyph-name="Iocyrillic" unicode="&#x401;" horiz-adv-x="274" 
d="M233.603 712.484h-121.09v-295.948h57.5566v-73.79h-57.5566v-343.186h121.09v-73.79h-183.603v848.206h183.603v-61.4922zM98.2461 800.159c-16.8242 0 -30.4629 13.6387 -30.4629 30.4629s13.6387 30.4629 30.4629 30.4629s30.4629 -13.6387 30.4629 -30.4629
s-13.6387 -30.4629 -30.4629 -30.4629zM185.355 800.159c-16.8242 0 -30.4629 13.6387 -30.4629 30.4629s13.6387 30.4629 30.4629 30.4629s30.4629 -13.6387 30.4629 -30.4629s-13.6387 -30.4629 -30.4629 -30.4629z" />
    <glyph glyph-name="Djecyrillic" unicode="&#x402;" horiz-adv-x="294" 
d="M134.58 538.69c60.4004 0 109.55 -49.1191 109.55 -109.539v-395c0 -55.4199 -41.4004 -101.22 -94.8701 -108.42v62.9199c19.29 6.24023 33.3701 24.1602 33.3701 45.5v395.01c0 26.4902 -21.5596 48.04 -48.0498 48.04h-17.6797v-477.19h-62.5098v712.63h-34.3896
v61.4902h129.26v-61.4902h-32.3604v-173.95h17.6797z" />
    <glyph glyph-name="Ecyrillic" unicode="&#x404;" horiz-adv-x="233" 
d="M168.246 404.832l0.00195312 -73.7764h-76.582c3.59082 -220.51 69.1777 -316.376 101.178 -363.085l-48.6895 -42.3066c-34.1523 49.8818 -114.153 166.691 -114.153 424.403c0 257.54 79.7793 374.178 113.858 423.986l48.9971 -41.8516l-0.283203 -0.417969
c-30.1191 -44.0283 -90.0859 -131.839 -99.7158 -326.952h75.3887z" />
    <glyph glyph-name="Icyrillic" unicode="&#x406;" horiz-adv-x="163" 
d="M112.5 -74.0967h-62.5v848.206h62.5v-848.206z" />
    <glyph glyph-name="Yicyrillic" unicode="&#x407;" horiz-adv-x="208" 
d="M90.9297 830.79c0 -16.8203 -13.6396 -30.46 -30.4697 -30.46c-16.8203 0 -30.46 13.6396 -30.46 30.46s13.6396 30.46 30.46 30.46c16.8301 0 30.4697 -13.6396 30.4697 -30.46zM147.569 861.25c16.8301 0 30.4697 -13.6396 30.4697 -30.46
s-13.6396 -30.46 -30.4697 -30.46c-16.8203 0 -30.46 13.6396 -30.46 30.46s13.6396 30.46 30.46 30.46zM135.27 -74.0898h-62.5098v848.22h62.5098v-848.22z" />
    <glyph glyph-name="Jecyrillic" unicode="&#x408;" horiz-adv-x="243" 
d="M30 774.06l162.84 0.000976562v-471.66c-0.0302734 -228.69 -80.0107 -332.37 -114.15 -376.64l-48.6904 37.5596c32.9004 42.6396 101.311 131.359 101.351 339.079h0.200195v410.17h-101.55v61.4902z" />
    <glyph glyph-name="Ljecyrillic" unicode="&#x409;" horiz-adv-x="368" 
d="M242.1 438.64c35.4502 -29.8799 94.9297 -102.421 94.9199 -252.471c0 -141.43 -49.3203 -231.17 -99.4502 -256.87l-6.41016 -3.4502h-62.5v739.67l-76.1504 -739.68h-62.5098l89.1602 848.28h112v-325.85zM231.179 7.23828
c20.4902 28.4902 44.3604 84.46 44.3604 178.93c0 86.5703 -22.6904 140.681 -44.3604 172.7v-351.63z" />
    <glyph glyph-name="Njecyrillic" unicode="&#x40a;" horiz-adv-x="372" 
d="M246.417 438.642c35.4561 -29.8848 94.9316 -102.42 94.9316 -252.473c0 -141.432 -49.3164 -231.173 -99.4443 -256.864l-6.39551 -3.44336v-0.0244141h-62.5254v446.517h-60.459v-446.517h-62.5254v848.28h62.5254v-327.973h60.459v327.973h62.5254v-325.87z
M235.51 7.27734c20.4766 28.5078 44.3477 84.4648 44.3477 178.892c0 86.5312 -22.6904 140.645 -44.3477 172.67v-351.562z" />
    <glyph glyph-name="Tshecyrillic" unicode="&#x40b;" horiz-adv-x="294" 
d="M134.58 538.69c60.4004 0 109.55 -49.1201 109.55 -109.54v-503.23h-61.5v503.24c0 26.4902 -21.5596 48.04 -48.0498 48.04h-17.6797v-551.29h-62.5098v786.73h-34.3896v61.4902h129.26v-61.4902h-32.3604v-173.95h17.6797z" />
    <glyph glyph-name="Ushortcyrillic" unicode="&#x40e;" horiz-adv-x="270" 
d="M177.33 774.15h62.5098l-102.83 -848.24h-62.5098l29.5996 244.17l-74.0898 604.07h62.5098l42.4805 -349.27zM185.56 808.45h-101.27v52.8096h101.27v-52.8096z" />
    <glyph glyph-name="Dzhecyrillic" unicode="&#x40f;" 
d="M235.496 774.131l0.000976562 -774.121h-61.4922v-74.2207h-62.5127v74.2207h-61.4922v774.121h62.5127v-700.158h60.4707v700.158h62.5127z" />
    <glyph glyph-name="Acyrillic" unicode="&#x410;" horiz-adv-x="262" 
d="M179.11 773.98l52.2803 -848.21h-62.5195l-5.78027 77.3799h-64.7998l-5.78027 -77.3799h-62.5098l52.2695 848.21h96.8398zM103.801 76.9307h53.7793l-26.8896 508.33z" />
    <glyph glyph-name="Becyrillic" unicode="&#x411;" horiz-adv-x="268" 
d="M218.364 712.546l-105.853 0.000976562v-264.366l10.9336 -9.61719c35.4561 -29.8848 94.9189 -102.421 94.9189 -252.485c0 -141.419 -49.3164 -231.16 -99.4443 -256.852l-6.40723 -3.45605h-62.5127v848.268h168.364v-61.4922zM156.872 186.078
c0 86.5801 -22.6895 140.694 -44.3594 172.707v-351.623c20.501 28.4951 44.3594 84.4648 44.3594 178.916z" />
    <glyph glyph-name="Vecyrillic" unicode="&#x412;" horiz-adv-x="270" 
d="M220.308 580.608c0 -63.9023 -20.2676 -118.789 -40.8057 -145.587c22.5557 -34.9395 40.8066 -127.165 40.8066 -209.355c0 -207.879 -82.707 -299.896 -82.707 -299.896h-87.6016v848.268h91.2168c31.7051 -16.5049 79.0908 -87.8604 79.0908 -193.43z
M112.513 -6.94531c23.1455 56.7939 46.3037 105.654 46.3037 232.61c0 109.025 -35.5918 186.727 -45.1104 192.15l-1.19336 0.787109v-425.548zM112.513 454.046c15.0283 11.3145 46.3037 55.6748 46.3037 126.562c0 97.5752 -46.3037 138.836 -46.3037 138.836v-265.398z
" />
    <glyph glyph-name="Gecyrillic" unicode="&#x413;" horiz-adv-x="249" 
d="M50 773.976l168.353 0.000976562v-61.4922h-105.84v-786.715h-62.5127v848.206z" />
    <glyph glyph-name="Decyrillic" unicode="&#x414;" horiz-adv-x="291" 
d="M239.27 -0.44043h20.8604v-73.79h-230.13v73.79h19.6396l72.8896 774.42h116.74v-774.42zM176.76 -0.44043v703.22l-64.6104 -703.22h64.6104z" />
    <glyph glyph-name="Iecyrillic" unicode="&#x415;" horiz-adv-x="274" 
d="M233.614 712.484h-121.103v-295.948h57.5684v-73.79h-57.5684v-343.186h121.103v-73.79h-183.614v848.206h183.614v-61.4922z" />
    <glyph glyph-name="Zhecyrillic" unicode="&#x416;" horiz-adv-x="381" 
d="M341.33 774.06l-64.6699 -382.02l64.6699 -466.26h-58.7803l-60.6299 441.69v-441.69h-62.5195v441.65l-60.6104 -441.65h-58.79l64.6797 466.26l-64.6797 382.02h58.79l58.9502 -354.77h1.66016v354.77h62.5195v-354.77h1.66992l58.96 354.77h58.7803z" />
    <glyph glyph-name="Zecyrillic" unicode="&#x417;" horiz-adv-x="221" 
d="M170.647 574.041c0 -62.4268 -4.45215 -124.385 -48.4062 -179.346c37.7559 -47.7178 48.4189 -124.816 48.4189 -213.155c0 -137.017 -49.2432 -228.246 -78.5996 -255.77l-42.0605 44.8525c17.7959 16.6885 59.168 92.8281 59.168 210.917
c0 78.6846 -16.959 157.8 -48.8242 185.741v55.2441c31.9639 21.0547 48.8252 95.6562 48.8252 151.516c0 89.2734 -37.3506 137.926 -50.4238 143.62l24.5596 56.376c43.4746 -18.9395 87.3428 -96.6279 87.3428 -199.996z" />
    <glyph glyph-name="Iicyrillic" unicode="&#x418;" 
d="M171.446 774.062l64.0508 -0.000976562v-848.292h-62.5127v440.454l-58.5527 -440.441h-64.4316v848.28h62.5127v-504.528z" />
    <glyph glyph-name="Iishortcyrillic" unicode="&#x419;" 
d="M171.446 774.062l64.0508 -0.000976562v-848.292h-62.5127v440.454l-58.5527 -440.441h-64.4316v848.28h62.5127v-504.528zM193.375 821.435h-101.265v52.8096h101.265v-52.8096z" />
    <glyph glyph-name="Kacyrillic" unicode="&#x41a;" horiz-adv-x="270" 
d="M230.232 774.062l-68.4277 -359.32l68.4277 -488.959h-58.7861l-58.9336 431.414v-431.415h-62.5127v848.28h62.5127v-319.758l58.9336 319.758h58.7861z" />
    <glyph glyph-name="Elcyrillic" unicode="&#x41b;" horiz-adv-x="261" 
d="M179.11 774.06l52.2607 -848.28h-62.5l-38.1699 659.56l-38.1904 -659.56h-62.5098l52.2695 848.28h96.8398z" />
    <glyph glyph-name="Emcyrillic" unicode="&#x41c;" horiz-adv-x="401" 
d="M92.5098 -74.2402h-62.5088l52.2695 848.3h87.3799l30.6299 -455.65l30.5498 455.65h87.4404l52.2695 -848.3h-62.5l-38.1699 659.6l-38.1904 -659.6h-62.8096l-38.1699 659.6z" />
    <glyph glyph-name="Encyrillic" unicode="&#x41d;" 
d="M172.983 774.062h62.5127v-848.28h-62.5127v405.256h-60.4707v-405.256h-62.5127v848.28h62.5127v-369.234h60.4707v369.234z" />
    <glyph glyph-name="Ocyrillic" unicode="&#x41e;" horiz-adv-x="257" 
d="M171.604 774.037c28.2246 -50.6689 55.7246 -237.259 55.7246 -422.928c0 -197.586 -34.3369 -375.875 -59.1553 -425.327h-79.0293c-24.7939 49.4639 -59.1436 227.753 -59.1436 425.326c0 185.669 27.499 372.26 55.7119 422.929h85.8916zM128.658 -9.30664
c17.7461 51.2969 37.1777 214.865 37.1777 360.416c0 158.87 -20.4766 325.033 -37.1777 369.824c-16.6885 -44.7783 -37.1533 -210.954 -37.1533 -369.824c0 -145.551 19.4316 -309.119 37.1533 -360.416z" />
    <glyph glyph-name="Pecyrillic" unicode="&#x41f;" 
d="M50 774.062h185.483v-848.292h-62.5127v774.502h-60.4707v-774.502h-62.5v848.292z" />
    <glyph glyph-name="Ercyrillic" unicode="&#x420;" horiz-adv-x="249" 
d="M118.908 770.594c50.1406 -25.6914 99.4443 -115.433 99.457 -256.852c0 -150.064 -59.4746 -222.601 -94.9307 -252.485l-10.9336 -9.61719v-325.882h-62.5v848.292h62.5zM112.501 341.036c21.6699 32.0254 44.3604 86.127 44.3604 172.707
c0 94.4512 -23.8711 150.421 -44.3604 178.916v-351.623z" />
    <glyph glyph-name="Escyrillic" unicode="&#x421;" horiz-adv-x="213" 
d="M192.572 731.793c-32.8125 -47.9395 -101.08 -147.715 -101.08 -381.617c0 -234.038 68.4404 -333.975 101.351 -382l-48.6895 -42.2822c-34.1523 49.8701 -114.153 166.655 -114.153 424.294c0 257.479 79.7793 374.079 113.858 423.875l48.9844 -41.8516z" />
    <glyph glyph-name="Tecyrillic" unicode="&#x422;" horiz-adv-x="265" 
d="M234.128 774.062l0.000976562 -61.4922h-70.8145v-786.801h-62.5127v786.801h-70.8018v61.4922h204.128z" />
    <glyph glyph-name="Ucyrillic" unicode="&#x423;" horiz-adv-x="270" 
d="M177.33 774.06h62.5195l-103.57 -848.29h-62.5195l30.0898 246.42l-73.8496 601.87h62.5098l42.3301 -347.99z" />
    <glyph glyph-name="Efcyrillic" unicode="&#x424;" horiz-adv-x="336" 
d="M206.899 695.39c45.3564 -28.6553 98.3135 -163.481 98.3135 -345.165c0 -180.441 -58.0117 -304.557 -92.5703 -340.492l-13.7861 -13.7129v-70.2607h-62.5v70.8262l-13.7861 13.1465c-34.5586 35.9355 -92.5703 160.051 -92.5703 340.492
c0 181.696 52.957 316.511 98.3135 345.166l8.04297 4.90723v73.7412h62.5v-72.7695zM136.355 95.71v516.913c-20.9688 -36.7969 -44.8643 -144.444 -44.8643 -262.398c0 -108.397 22.8008 -213.61 44.8643 -254.515zM198.855 95.71
c22.0635 40.9043 44.8643 146.118 44.8643 254.516c0 117.941 -23.8955 225.589 -44.8643 262.397v-516.913z" />
    <glyph glyph-name="Khacyrillic" unicode="&#x425;" horiz-adv-x="298" 
d="M257.77 774.06l-77.6299 -424.14l77.6299 -424.14h-62.5l-46.3799 253.41l-46.3896 -253.41h-62.5l77.6396 424.14l-77.6396 424.14h62.5l46.3896 -253.41l46.3799 253.41h62.5z" />
    <glyph glyph-name="Tsecyrillic" unicode="&#x426;" horiz-adv-x="297" 
d="M235.496 -0.243164h31.25v-148.195h-62.5127v74.2334h-154.233v848.243h62.5127v-774.465h60.4707v774.465h62.5127v-774.281z" />
    <glyph glyph-name="Checyrillic" unicode="&#x427;" horiz-adv-x="290" 
d="M177.227 774.062l62.5127 0.000976562v-848.28h-62.5127v284.731h-17.6846c-60.3975 0 -109.542 49.1318 -109.542 109.529v454.019h61.4922v-454.031c0 -26.4785 21.5586 -48.0371 48.0488 -48.0371h17.6855v502.068z" />
    <glyph glyph-name="Shacyrillic" unicode="&#x428;" horiz-adv-x="385" 
d="M272.035 774.037h62.5127v-848.243h-284.548v848.243h62.5127v-774.465h48.1729v774.465h63.1768v-774.465h48.1729v774.465z" />
    <glyph glyph-name="Shchacyrillic" unicode="&#x429;" horiz-adv-x="396" 
d="M334.548 -0.243164h31.25v-148.195h-62.5127v74.2334h-253.285v848.243h62.5127v-774.465h48.1729v774.465h63.1768v-774.465h48.1729v774.465h62.5127v-774.281z" />
    <glyph glyph-name="Hardsigncyrillic" unicode="&#x42a;" horiz-adv-x="284" 
d="M159.53 438.57c35.4502 -29.8799 94.9209 -102.42 94.9209 -252.49c0 -141.42 -49.3203 -231.16 -99.4404 -256.851l-6.41016 -3.45996h-62.5v786.78h-56.0898v61.4902h118.59v-325.85zM148.602 7.16016c20.4902 28.5098 44.3604 84.4707 44.3604 178.921
c0 86.5801 -22.6904 140.68 -44.3604 172.699v-351.62z" />
    <glyph glyph-name="Yericyrillic" unicode="&#x42b;" horiz-adv-x="352" 
d="M123.439 438.698c35.4443 -29.8848 94.918 -102.42 94.918 -252.497c0 -141.419 -49.3164 -231.16 -99.4443 -256.852l-6.40723 -3.45605h-62.5v848.145h62.5v-325.723zM112.505 7.28516c20.4893 28.5078 44.3604 84.4648 44.3604 178.929
c0 86.5801 -22.6904 140.681 -44.3604 172.706v-351.635zM302.072 -74.2295h-62.5v848.268h62.5v-848.268z" />
    <glyph glyph-name="Softsigncyrillic" unicode="&#x42c;" horiz-adv-x="249" 
d="M123.439 438.575c35.4561 -29.8848 94.9307 -102.42 94.918 -252.497c0 -141.419 -49.3164 -231.16 -99.4443 -256.852l-6.40723 -3.45605h-62.5v848.268h62.5v-325.846zM112.506 7.16211c20.4893 28.5078 44.373 84.4658 44.3604 178.917
c0 86.5801 -22.6904 140.681 -44.3604 172.706v-351.623z" />
    <glyph glyph-name="Ereversedcyrillic" unicode="&#x42d;" horiz-adv-x="223" 
d="M78.9805 774.06c34.0801 -49.8096 113.86 -166.44 113.86 -424c0 -257.7 -80 -374.521 -114.15 -424.4l-48.6904 42.29c32 46.7197 97.5898 142.58 101.18 363.09h-76.5801v73.79h75.4004c-9.62988 195.11 -69.5996 282.92 -99.7197 326.95l-0.280273 0.419922z" />
    <glyph glyph-name="IUcyrillic" unicode="&#x42e;" horiz-adv-x="373" 
d="M287.211 774.062c28.2246 -50.6816 55.7227 -237.282 55.7354 -422.951c0 -197.586 -34.3369 -375.875 -59.1553 -425.327h-79.0293c-23.957 47.7793 -56.8184 215.787 -59.0195 405.256h-33.2422v-405.269h-62.5v848.292h62.5v-369.222h33.8701
c4.5752 166.729 29.4668 323.446 54.9492 369.221h85.8916zM244.264 -9.30371c17.7461 51.2969 37.1797 214.865 37.1797 360.416c0 158.87 -20.4648 325.058 -37.1787 369.849c-16.7012 -44.791 -37.166 -210.979 -37.166 -369.849
c0 -145.551 19.4434 -309.119 37.165 -360.416z" />
    <glyph glyph-name="IAcyrillic" unicode="&#x42f;" horiz-adv-x="277" 
d="M164.32 774.04h62.4795v-848.26h-62.5v315.62l-71.7803 -315.62h-62.5098l85.7305 376.92c-29.1201 41.2002 -57.29 107.76 -57.29 211.029c0 141.42 49.3203 231.16 99.4502 256.851zM164.319 692.65c-20.4902 -28.5098 -44.3604 -84.4697 -44.3604 -178.92
c0 -86.5801 22.6904 -140.69 44.3604 -172.71v351.63z" />
    <glyph glyph-name="acyrillic" unicode="&#x430;" horiz-adv-x="262" 
d="M179.11 700l52.2695 -699.99h-62.5098l-5.76953 77.3799h-64.7998l-5.78027 -77.3799h-62.5098l52.2598 699.99h96.8398zM103.81 151.189h53.7803l-26.9004 360.1z" />
    <glyph glyph-name="becyrillic" unicode="&#x431;" horiz-adv-x="268" 
d="M218.364 700v-61.5039h-105.853v-116.072l10.9336 -9.61719c35.4561 -29.8848 94.9189 -102.421 94.9189 -252.485c0 -141.419 -49.3164 -231.16 -99.4443 -256.852l-6.40723 -3.45605h-62.5127v699.986h168.364zM156.872 260.334
c0 86.5801 -22.6895 140.682 -44.3594 172.707v-351.623c20.501 28.4951 44.3594 84.4648 44.3594 178.916z" />
    <glyph glyph-name="vecyrillic" unicode="&#x432;" horiz-adv-x="270" 
d="M220.308 531.426c0 -63.915 -20.2686 -106.503 -40.8066 -133.289c22.5557 -34.9521 40.8066 -92.0537 40.8066 -174.244c0 -122 -44.0771 -181.524 -70.3467 -206.158l-18.7676 -17.7217h-81.1934v699.986h91.2168c39.3672 -17.1436 79.0908 -75.9297 79.0908 -168.573z
M112.512 67.2861c16.8242 18.1768 46.3037 63.2754 46.3037 156.607c0 109.037 -35.5918 151.614 -45.1104 157.038l-1.19336 0.787109v-314.433zM112.512 417.163c15.0283 11.3018 46.3027 43.3633 46.3027 114.264c0 76.582 -31.2256 107.427 -42.1709 112.198
l-4.13184 1.7959v-228.258z" />
    <glyph glyph-name="gecyrillic" unicode="&#x433;" horiz-adv-x="249" 
d="M50 700h168.353v-61.4922h-105.84v-638.494h-62.5127v699.986z" />
    <glyph glyph-name="decyrillic" unicode="&#x434;" horiz-adv-x="281" 
d="M229.27 73.7998h20.8604v-73.79h-230.13v73.79h19.6396l72.8896 626.2h116.74v-626.2zM166.76 73.7998v555l-64.6104 -555h64.6104z" />
    <glyph glyph-name="iecyrillic" unicode="&#x435;" horiz-adv-x="274" 
d="M233.614 638.508h-121.103v-147.728h57.5684v-73.79h-57.5684v-343.187h121.103v-73.79h-183.614v699.986h183.614v-61.4922z" />
    <glyph glyph-name="zhecyrillic" unicode="&#x436;" horiz-adv-x="381" 
d="M341.33 700l-64.6699 -307.95l64.6699 -392.04h-58.7803l-60.6299 367.45v-367.45h-62.5195v367.42l-60.6104 -367.42h-58.79l64.6797 392.04l-64.6797 307.95h58.79l58.9502 -280.71h1.66016v280.71h62.5195v-280.71h1.66992l58.96 280.71h58.7803z" />
    <glyph glyph-name="zecyrillic" unicode="&#x437;" horiz-adv-x="221" 
d="M170.647 538.929c0 -62.4268 -12.4209 -109.257 -48.4062 -144.233c37.7559 -47.7178 48.4189 -101.806 48.4189 -190.145c0 -137.017 -49.2432 -203.649 -78.5996 -231.173l-42.0605 44.8525c17.7959 16.6885 59.168 68.2305 59.168 186.319
c0 78.6846 -16.959 134.79 -48.8242 162.731v55.2441c31.9639 21.0547 48.8252 60.5449 48.8252 116.404c0 89.2734 -37.3506 125.627 -50.4238 131.321l24.5596 56.376c43.4746 -18.9395 87.3428 -84.3301 87.3428 -187.698z" />
    <glyph glyph-name="iicyrillic" unicode="&#x438;" 
d="M171.446 700h64.0508v-699.986h-62.5127v378.507l-58.5527 -378.507h-64.4316v699.986h62.5127v-380.831z" />
    <glyph glyph-name="iishortcyrillic" unicode="&#x439;" 
d="M171.446 700h64.0508v-699.986h-62.5127v378.507l-58.5527 -378.507h-64.4316v699.986h62.5127v-380.831zM193.375 734.3h-101.265v52.8096h101.265v-52.8096z" />
    <glyph glyph-name="kacyrillic" unicode="&#x43a;" horiz-adv-x="270" 
d="M230.232 700l-68.4277 -285.261l68.4277 -414.726h-58.7861l-58.9336 357.194v-357.194h-62.5127v699.986h62.5127v-245.685l58.9336 245.685h58.7861z" />
    <glyph glyph-name="elcyrillic" unicode="&#x43b;" horiz-adv-x="262" 
d="M179.105 700l52.2676 -699.986h-62.5l-38.1738 511.268l-38.1865 -511.268h-62.5127l52.2686 699.986h96.8369z" />
    <glyph glyph-name="emcyrillic" unicode="&#x43c;" horiz-adv-x="385" 
d="M218.599 700h116.735v-699.986h-62.5127v628.778l-47.3115 -628.778h-65.6855l-47.3115 628.778v-628.778h-62.5127v699.986h116.736l25.9248 -400.238z" />
    <glyph glyph-name="encyrillic" unicode="&#x43d;" 
d="M172.983 700h62.5127v-699.986h-62.5127v331.035h-60.4707v-331.035h-62.5127v699.986h62.5127v-295.161h60.4707v295.161z" />
    <glyph glyph-name="ocyrillic" unicode="&#x43e;" horiz-adv-x="258" 
d="M171.604 700c28.2246 -50.6816 55.7246 -163.224 55.7246 -348.88c0 -197.586 -34.3369 -301.63 -59.1553 -351.094h-79.0293c-24.7939 49.4639 -59.1436 153.521 -59.1436 351.094c0 185.669 27.499 298.211 55.7119 348.88h85.8916zM128.658 64.9248
c17.7461 51.2969 37.1777 140.632 37.1777 286.195c0 158.87 -20.4766 250.997 -37.1777 295.788c-16.6885 -44.791 -37.1533 -136.918 -37.1533 -295.788c0 -145.551 19.4316 -234.898 37.1533 -286.195z" />
    <glyph glyph-name="pecyrillic" unicode="&#x43f;" 
d="M50 700h185.483v-699.986h-62.5127v626.196h-60.4707v-626.196h-62.5v699.986z" />
    <glyph glyph-name="ercyrillic" unicode="&#x440;" horiz-adv-x="249" 
d="M118.908 696.532c50.1406 -25.6914 99.4443 -115.432 99.457 -256.863c0 -150.064 -59.4746 -222.601 -94.9307 -252.485l-10.9336 -9.61719v-177.552h-62.5v699.974h62.5zM112.501 266.976c21.6699 32.0127 44.3604 86.127 44.3604 172.707
c0 94.4512 -23.8711 150.421 -44.3604 178.916v-351.623z" />
    <glyph glyph-name="escyrillic" unicode="&#x441;" horiz-adv-x="213" 
d="M192.572 689.092c-32.8125 -42.5771 -101.08 -131.186 -101.08 -338.905c0 -207.843 68.4404 -296.601 101.351 -339.251l-48.6895 -37.5596c-34.1523 44.2861 -114.153 148.011 -114.153 376.81c0 228.664 79.7793 332.217 113.858 376.441l48.9844 -37.166z" />
    <glyph glyph-name="tecyrillic" unicode="&#x442;" horiz-adv-x="255" 
d="M229.128 700l0.000976562 -61.4922h-70.8145v-638.494h-62.5127v638.494h-70.8018v61.4922h204.128z" />
    <glyph glyph-name="ucyrillic" unicode="&#x443;" horiz-adv-x="270" 
d="M177.33 700h62.5205l-93.7803 -699.99h-62.5098l21.5801 161.16l-75.1396 538.83h62.5098l43.2695 -310.21z" />
    <glyph glyph-name="efcyrillic" unicode="&#x444;" horiz-adv-x="336" 
d="M206.899 658.493c45.3564 -28.6553 98.3135 -126.576 98.3135 -308.26c0 -180.441 -58.0117 -267.661 -92.5703 -303.597l-13.7861 -13.7129v-32.9102h-62.5v33.4766l-13.7861 13.1465c-34.5586 35.9355 -92.5703 123.155 -92.5703 303.597
c0 181.696 52.957 279.616 98.3135 308.271l8.04297 4.90723v36.5879h62.5v-35.6279zM136.355 132.602v443.123c-20.9688 -36.7969 -44.8643 -107.55 -44.8643 -225.504c0 -108.397 22.8008 -176.715 44.8643 -217.619zM198.855 132.602
c22.0635 40.9043 44.8643 109.223 44.8643 217.62c0 117.941 -23.8955 188.694 -44.8643 225.503v-443.123z" />
    <glyph glyph-name="khacyrillic" unicode="&#x445;" horiz-adv-x="298" 
d="M257.77 700l-77.6299 -350l77.6299 -349.99h-62.5l-46.3799 209.11l-46.3896 -209.11h-62.5l77.6396 349.99l-77.6396 350h62.5l46.3896 -209.11l46.3799 209.11h62.5z" />
    <glyph glyph-name="tsecyrillic" unicode="&#x446;" horiz-adv-x="297" 
d="M235.496 73.9756h31.25v-148.195h-62.5127v74.2334h-154.233v699.986h62.5127v-626.196h60.4707v626.196h62.5127v-626.024z" />
    <glyph glyph-name="checyrillic" unicode="&#x447;" horiz-adv-x="290" 
d="M177.227 700l62.5127 -0.000976562v-699.986h-62.5127v210.499h-17.6846c-60.3975 0 -109.542 49.1318 -109.542 109.529v379.958h61.4922v-379.958c0 -26.4785 21.5586 -48.0371 48.0488 -48.0371h17.6855v427.996z" />
    <glyph glyph-name="shacyrillic" unicode="&#x448;" horiz-adv-x="385" 
d="M272.035 700h62.5127v-699.986h-284.548v699.986h62.5127v-626.196h48.1729v626.196h63.1768v-626.196h48.1729v626.196z" />
    <glyph glyph-name="shchacyrillic" unicode="&#x449;" horiz-adv-x="396" 
d="M334.548 73.9756h31.25v-148.195h-62.5127v74.2334h-253.285v699.986h62.5127v-626.196h48.1729v626.196h63.1768v-626.196h48.1729v626.196h62.5127v-626.024z" />
    <glyph glyph-name="hardsigncyrillic" unicode="&#x44a;" horiz-adv-x="268" 
d="M142.532 512.807c35.4443 -29.8848 94.918 -102.422 94.918 -252.486c0 -141.419 -49.3164 -231.16 -99.4443 -256.852l-6.40723 -3.45605h-62.5v638.482h-56.0928v61.4922h118.593v-177.563zM131.598 81.4033c20.4893 28.4951 44.3604 84.4658 44.3604 178.917
c0 86.5801 -22.6904 140.693 -44.3604 172.706v-351.623z" />
    <glyph glyph-name="yericyrillic" unicode="&#x44b;" horiz-adv-x="352" 
d="M123.439 512.807c35.4443 -29.8848 94.918 -102.421 94.918 -252.485c0 -141.419 -49.3164 -231.16 -99.4443 -256.852l-6.40723 -3.45605h-62.5v699.974h62.5v-177.563zM112.505 81.4043c20.4893 28.4951 44.3604 84.4658 44.3604 178.917
c0 86.5801 -22.6904 140.693 -44.3604 172.706v-351.623zM302.072 -0.121094h-62.5v700.109h62.5v-700.109z" />
    <glyph glyph-name="softsigncyrillic" unicode="&#x44c;" horiz-adv-x="249" 
d="M123.439 512.807c35.4561 -29.8848 94.9307 -102.421 94.918 -252.485c0 -141.419 -49.3164 -231.16 -99.4443 -256.852l-6.40723 -3.45605h-62.5v699.974h62.5v-177.563zM112.506 81.4043c20.4893 28.4951 44.373 84.4658 44.3604 178.917
c0 86.5801 -22.6904 140.693 -44.3604 172.706v-351.623z" />
    <glyph glyph-name="ereversedcyrillic" unicode="&#x44d;" horiz-adv-x="223" 
d="M78.9844 726.626c34.0791 -44.2246 113.857 -147.779 113.857 -376.455c0 -228.799 -80.001 -332.523 -114.153 -376.81l-48.6895 37.5596c31.8652 41.2979 96.8379 126.156 100.958 320.114h-76.3604v73.79h74.8975c-10.7119 168.845 -69.4492 245.648 -99.2109 284.266
l-0.283203 0.369141z" />
    <glyph glyph-name="iucyrillic" unicode="&#x44e;" horiz-adv-x="373" 
d="M287.211 700c28.2246 -50.6816 55.7227 -163.225 55.7227 -348.881c0 -197.586 -34.3369 -301.63 -59.1553 -351.094h-79.0293c-23.9199 47.7305 -56.6582 146.585 -58.9209 331.023h-33.3281v-331.035h-62.5v699.986h62.5v-295.161h33.9932
c4.73535 153.804 29.4551 249.596 54.8262 295.161h85.8916zM244.264 64.9238c17.7461 51.2969 37.1797 140.632 37.1797 286.195c0 158.87 -20.4648 250.997 -37.1787 295.788c-16.7012 -44.791 -37.166 -136.918 -37.166 -295.788
c0 -145.551 19.4434 -234.898 37.165 -286.195z" />
    <glyph glyph-name="iacyrillic" unicode="&#x44f;" horiz-adv-x="248" 
d="M135.86 700h62.5v-699.99h-62.5v174.47l-43.3398 -174.47h-62.5098l56.9199 229.17c-28.9902 41.25 -56.9307 107.66 -56.9307 210.51c0 141.42 49.3203 231.16 99.4404 256.851zM135.86 618.6c-20.4805 -28.5 -44.3604 -84.4697 -44.3604 -178.92
c0 -86.5801 22.6904 -140.69 44.3604 -172.71v351.63z" />
    <glyph glyph-name="iocyrillic" unicode="&#x451;" horiz-adv-x="274" 
d="M233.603 638.508h-121.09v-147.728h57.5566v-73.79h-57.5566v-343.187h121.09v-73.79h-183.603v699.986h183.603v-61.4922zM98.2461 726.183c-16.8242 0 -30.4629 13.6387 -30.4629 30.4629s13.6387 30.4629 30.4629 30.4629s30.4629 -13.6387 30.4629 -30.4629
s-13.6387 -30.4629 -30.4629 -30.4629zM185.355 726.183c-16.8242 0 -30.4629 13.6387 -30.4629 30.4629s13.6387 30.4629 30.4629 30.4629s30.4629 -13.6387 30.4629 -30.4629s-13.6387 -30.4629 -30.4629 -30.4629z" />
    <glyph glyph-name="djecyrillic" unicode="&#x452;" horiz-adv-x="304" 
d="M144.58 538.69c60.4004 0 109.55 -49.1201 109.55 -109.53v-319.62c0 -55.4199 -41.4004 -101.22 -94.8701 -108.42v62.9102c19.29 6.25 33.3701 24.1699 33.3701 45.5098v319.62c0 26.4902 -21.5596 48.04 -48.0498 48.04h-17.6797v-477.19h-62.5098v638.48h-34.3896
v61.4902h129.26v-61.4902h-32.3604v-99.7998h17.6797z" />
    <glyph glyph-name="ecyrillic" unicode="&#x454;" horiz-adv-x="233" 
d="M168.258 404.834l-0.000976562 -73.8008h-76.373c4.12012 -193.958 69.0928 -278.816 100.958 -320.114l-48.6895 -37.5596c-34.1523 44.2861 -114.153 148.011 -114.153 376.822c0 228.639 79.7793 332.203 113.858 376.428l48.9844 -37.166l-0.270508 -0.356445
c-29.75 -38.6172 -88.499 -115.408 -99.2109 -284.253h74.8975z" />
    <glyph glyph-name="icyrillic" unicode="&#x456;" horiz-adv-x="163" 
d="M112.5 0.00390625h-62.5v699.986h62.5v-699.986z" />
    <glyph glyph-name="yicyrillic" unicode="&#x457;" horiz-adv-x="209" 
d="M60.4629 726.179c-16.8242 0 -30.4629 13.6387 -30.4629 30.4629s13.6387 30.4629 30.4629 30.4629s30.4629 -13.6387 30.4629 -30.4629s-13.6387 -30.4629 -30.4629 -30.4629zM147.572 787.117c16.8242 0 30.4629 -13.6387 30.4629 -30.4629
s-13.6387 -30.4629 -30.4629 -30.4629s-30.4629 13.6387 -30.4629 30.4629s13.6387 30.4629 30.4629 30.4629zM135.273 0.00878906h-62.5127v699.986h62.5127v-699.986z" />
    <glyph glyph-name="jecyrillic" unicode="&#x458;" horiz-adv-x="243" 
d="M30 699.99l162.84 0.000976562v-349.99c-0.0302734 -228.69 -80.0107 -332.36 -114.15 -376.641l-48.6904 37.5596c32.9004 42.6504 101.311 131.36 101.351 339.08h0.200195v288.49h-101.55v61.5z" />
    <glyph glyph-name="ljecyrillic" unicode="&#x459;" horiz-adv-x="368" 
d="M242.1 512.81c35.4502 -29.8701 94.9297 -102.42 94.9199 -252.47c0 -141.43 -49.3203 -231.17 -99.4502 -256.86l-6.41016 -3.45996h-62.5v591.39l-76.1504 -591.39h-62.5098l89.1602 699.99h112v-177.57zM231.179 81.4092
c20.4902 28.5098 44.3604 84.4697 44.3604 178.93c0 86.5703 -22.6904 140.69 -44.3604 172.71v-351.64z" />
    <glyph glyph-name="njecyrillic" unicode="&#x45a;" horiz-adv-x="372" 
d="M246.417 512.814c35.4561 -29.873 94.9316 -102.42 94.9316 -252.473c0 -141.432 -49.3164 -231.173 -99.4443 -256.864l-6.39551 -3.44336v-0.0244141h-62.5254v331.048h-60.459v-331.035h-62.5254v699.986h62.5254v-295.161h60.459v295.161h62.5254v-177.589z
M235.51 81.4502c20.4766 28.5078 44.3477 84.4648 44.3477 178.892c0 86.5312 -22.6904 140.645 -44.3477 172.67v-351.562z" />
    <glyph glyph-name="tshecyrillic" unicode="&#x45b;" horiz-adv-x="305" 
d="M144.584 538.689c60.3975 0 109.541 -49.1191 109.541 -109.528v-429.14h-61.4922v429.14c0 26.4902 -21.5586 48.0371 -48.0488 48.0371h-17.6846v-477.189h-62.5127v638.482h-34.3867v61.4922h129.256v-61.4922h-32.3574v-99.8018h17.6855z" />
    <glyph glyph-name="ushortcyrillic" unicode="&#x45e;" horiz-adv-x="270" 
d="M177.32 700.01h62.5098l-93.7695 -699.99h-62.5098l21.5898 161.16l-75.1396 538.83h62.5098l43.2598 -310.22zM185.55 734.31h-101.26v52.8096h101.26v-52.8096z" />
    <glyph glyph-name="dzhecyrillic" unicode="&#x45f;" 
d="M235.496 699.995l0.000976562 -699.986h-61.4922v-74.2207h-62.5127v74.2207h-61.4922v699.986h62.5127v-626.024h60.4707v626.024h62.5127z" />
    <glyph glyph-name="Yatcyrillic" unicode="&#x462;" horiz-adv-x="264" 
d="M138.24 512.81c35.46 -29.8701 94.9307 -102.419 94.9307 -252.509c0 -141.4 -49.3203 -231.141 -99.4404 -256.851l-6.41992 -3.4502h-62.5v576.97h-53.8096v61.5098h53.8096v61.4902h62.5v-61.4902h54.8203v-61.5098h-54.8203v-54.5498zM127.312 81.4102
c20.4805 28.5 44.3701 84.4512 44.3701 178.911c0 86.5898 -22.7002 140.68 -44.3701 172.699v-351.61z" />
    <glyph glyph-name="Gheupturncyrillic" unicode="&#x490;" horiz-adv-x="248" 
d="M155.853 834.8h62.5v-122.196h-105.84v-786.702h-62.5127v848.182h105.853v60.7168z" />
    <glyph glyph-name="gheupturncyrillic" unicode="&#x491;" horiz-adv-x="249" 
d="M155.864 760.712l62.501 -0.000976562v-122.196h-105.853v-638.507h-62.5127v699.999h105.864v60.7051z" />
    <glyph glyph-name="Ghestrokecyrillic" unicode="&#x492;" horiz-adv-x="290" 
d="M259.208 712.646l-121.09 0.000976562v-221.875h57.5566v-61.6396h-57.5566v-503.225h-62.5127v503.225h-25.6055v61.5039h25.6055v283.502h183.603v-61.4922z" />
    <glyph glyph-name="ghestrokecyrillic" unicode="&#x493;" horiz-adv-x="295" 
d="M264.213 638.488h-121.102v-147.347h57.5684v-62.8818h-57.5684v-428.254h-62.5127v428.254h-30.5986v62.8818h30.5986v208.851h183.614v-61.5039z" />
    <glyph glyph-name="Kadescendercyrillic" unicode="&#x49a;" horiz-adv-x="274" 
d="M218.03 70.1797l36.0498 -0.000976562v-148.18h-62.5v74.2305h-20.1299l-58.9404 357.18v-357.18h-62.5098v774.12h62.5098v-319.83l58.9404 319.83h58.79l-68.4404 -359.4z" />
    <glyph glyph-name="kadescendercyrillic" unicode="&#x49b;" horiz-adv-x="274" 
d="M218.032 73.9717h36.0342v-148.183h-62.5v74.2207h-20.1201l-58.9336 357.182v-357.182h-62.5127v699.986h62.5127v-245.697l58.9336 245.697h58.7861l-68.4404 -285.261z" />
    <glyph glyph-name="Endescendercyrillic" unicode="&#x4a2;" horiz-adv-x="292" 
d="M235.5 73.1797l31.25 -0.000976562v-148.18h-62.5v74.2305h-31.2695v331.03h-60.4697v-331.03h-62.5098v774.12h62.5098v-369.3h60.4697v369.3h62.5195v-700.17z" />
    <glyph glyph-name="endescendercyrillic" unicode="&#x4a3;" horiz-adv-x="292" 
d="M235.496 73.9717h31.25v-148.183h-62.5v74.2207h-31.2627v331.023h-60.4707v-331.023h-62.5127v699.986h62.5127v-295.173h60.4707v295.173h62.5127v-626.024z" />
    <glyph glyph-name="Ustraightcyrillic" unicode="&#x4ae;" horiz-adv-x="325" 
d="M212.093 774.065h62.5127l-80.7881 -569.882v-278.423h-61.4922v278.645l-82.3252 569.66h64.0498l49.0215 -393.007z" />
    <glyph glyph-name="ustraightcyrillic" unicode="&#x4af;" 
d="M192.093 699.997h62.5127l-80.7881 -569.882v-130.104h-61.4922v130.326l-82.3252 569.66h64.0498l49.0215 -393.007z" />
    <glyph glyph-name="Ustraightstrokecyrillic" unicode="&#x4b0;" horiz-adv-x="270" 
d="M239.85 774.15l-67.5479 -551.23h43.7695v-61.5h-51.2998l-28.8604 -235.51h-62.5098l28.8496 235.51h-48.6396v61.5h44.0195l-67.6299 551.23h62.5098l42.2598 -347.39l42.5596 347.39h62.5195z" />
    <glyph glyph-name="ustraightstrokecyrillic" unicode="&#x4b1;" horiz-adv-x="270" 
d="M239.85 700.01l-63.918 -477.09h40.1396v-61.4902h-48.3799l-21.6201 -161.41h-62.5098l21.5996 161.16l-0.0400391 0.25h-51.4902v61.4902h42.9004l-66.5303 477.09h62.5098l43.2695 -310.22l41.5498 310.22h62.5195z" />
    <glyph glyph-name="Shhacyrillic" unicode="&#x4ba;" horiz-adv-x="290" 
d="M130.197 538.901c60.3975 0 109.541 -49.1201 109.541 -109.529v-503.237h-61.4922v503.237c0 26.4902 -21.5586 48.0371 -48.0488 48.0371h-17.6855v-551.274h-62.5127v848.194h62.5127v-235.428h17.6855z" />
    <glyph glyph-name="shhacyrillic" unicode="&#x4bb;" horiz-adv-x="290" 
d="M130.197 538.689c60.3975 0 109.541 -49.1191 109.541 -109.528v-429.14h-61.4922v429.14c0 26.4902 -21.5586 48.0371 -48.0488 48.0371h-17.6855v-477.189h-62.5127v699.986h62.5127v-161.306h17.6855z" />
    <glyph glyph-name="Schwacyrillic" unicode="&#x4d8;" horiz-adv-x="297" 
d="M191.604 774.012c28.2246 -50.6689 55.7246 -237.272 55.7246 -422.929c0 -197.573 -34.3369 -375.862 -59.1553 -425.314h-79.0293c-24.7939 49.4521 -59.1436 227.741 -59.1436 425.314c0 20.1816 0.344727 40.376 0.959961 60.4102h133.941
c-4.19336 138.578 -21.6572 270.306 -36.2432 309.427c-10.4414 -28.0283 -22.3711 -103.59 -29.8359 -195.151h-61.1846c10.1094 116.822 28.9258 213.856 48.0742 248.243h85.8916zM111.505 350.001c0.0986328 -145.28 19.4678 -308.172 37.1533 -359.333
c17.6973 51.1611 37.0674 214.053 37.166 359.333h-74.3193z" />
    <glyph glyph-name="schwacyrillic" unicode="&#x4d9;" horiz-adv-x="297" 
d="M191.604 699.985c28.2246 -50.6689 55.7236 -163.211 55.7236 -348.88c0 -197.573 -34.3369 -301.63 -59.1553 -351.094h-79.0293c-24.7939 49.4639 -59.1436 153.521 -59.1436 351.094c0 21.1045 0.393555 41.1504 1.07031 60.3848h133.695
c-4.39062 122.295 -21.6455 196.639 -36.1084 235.403c-9.39551 -25.1875 -19.9717 -65.3662 -27.4365 -123.968h-61.8115c10.4287 86.4082 28.2002 144.555 46.3037 177.06h85.8916zM111.504 349.998c0.0986328 -144.887 19.4678 -233.927 37.1406 -285.088
c17.71 51.1611 37.0801 140.201 37.1787 285.088h-74.3193z" />
    <glyph glyph-name="Obarredcyrillic" unicode="&#x4e8;" horiz-adv-x="257" 
d="M171.604 774.978c28.2246 -50.6689 55.7236 -238.207 55.7363 -423.876c0 -197.573 -34.3496 -375.813 -59.168 -425.266h-79.0293c-24.7939 49.4521 -59.1436 227.692 -59.1436 425.266c0 185.669 27.4873 373.207 55.7002 423.876h85.9043zM165.602 380.741
c-2.2998 149.499 -21.2637 299.134 -36.9443 341.133c-15.668 -41.999 -34.6318 -191.634 -36.9316 -341.133h73.876zM91.8115 319.249c2.50879 -136.795 20.3896 -280.932 36.833 -328.514c16.4678 47.582 34.3623 191.719 36.8584 328.514h-73.6914z" />
    <glyph glyph-name="obarredcyrillic" unicode="&#x4e9;" horiz-adv-x="258" 
d="M171.591 699.983c28.2246 -50.6689 55.7246 -163.21 55.749 -348.879c0 -197.586 -34.3496 -301.643 -59.168 -351.095h-79.0293c-24.7939 49.4639 -59.1436 153.521 -59.1436 351.094c0 185.656 27.4873 298.211 55.7002 348.88h85.8916zM165.578 380.743
c-2.36133 140.804 -21.2891 224.224 -36.9326 266.148c-15.6191 -41.9248 -34.5459 -125.345 -36.9072 -266.148h73.8398zM91.8359 319.251c2.59473 -126.846 20.415 -206.908 36.7969 -254.343c16.418 47.4346 34.2383 127.497 36.833 254.343h-73.6299z" />
    <glyph glyph-name="uni1e9e" unicode="&#x1e9e;" horiz-adv-x="290" 
d="M239.739 665.612l0.000976562 -66.8555c0 -30.8076 -12.8145 -58.6143 -33.3652 -78.501c20.5381 -19.9111 33.3652 -47.7422 33.3652 -78.5498v-440.491c0 -55.416 -41.3965 -101.215 -94.8701 -108.422v62.9189c19.2959 6.24805 33.3779 24.167 33.3779 45.5049
v440.491c0 26.4902 -21.5586 48.0371 -48.0488 48.0371h-17.6855v-563.979h-62.5127v739.846c0 55.416 38.6904 108.422 94.8691 108.422c58.6016 0 94.8691 -53.0059 94.8691 -108.422zM178.248 598.77l-0.000976562 66.8408c0 21.3379 -9.11328 49.2188 -33.3779 49.2188
s-32.0498 -28.1514 -32.0498 -50.5586l-0.307617 -113.034s20.1816 -0.147461 21.4365 -0.18457l-0.0244141 0.123047c31.3613 -0.344727 44.3242 26.2568 44.3242 47.5947z" />
    <glyph glyph-name="emdash" unicode="&#x2014;" horiz-adv-x="416" 
d="M365.896 318.762h-315.896v62.5h315.896v-62.5z" />
    <glyph glyph-name="quoteleft" unicode="&#x2018;" horiz-adv-x="112" 
d="M101.347 773.079l-43.708 -144.075h-42.6387l13.6016 144.075h72.7451z" />
    <glyph glyph-name="quoteright" unicode="&#x2019;" horiz-adv-x="112" 
d="M101.347 773.079l-43.708 -144.075h-42.6387l13.6016 144.075h72.7451z" />
    <glyph glyph-name="ellipsis" unicode="&#x2026;" horiz-adv-x="330" 
d="M79.5283 54.1641c16.332 0 29.54 -13.2334 29.54 -29.5283c0 -16.3203 -13.208 -29.5537 -29.54 -29.5537c-16.2949 0 -29.5283 13.2334 -29.5283 29.5537c0 16.2949 13.2334 29.5283 29.5283 29.5283zM165.162 54.1641c16.332 0 29.54 -13.2334 29.54 -29.5283
c0 -16.3203 -13.208 -29.5537 -29.54 -29.5537c-16.2949 0 -29.5283 13.2334 -29.5283 29.5537c0 16.2949 13.2334 29.5283 29.5283 29.5283zM250.796 54.1641c16.332 0 29.54 -13.2334 29.54 -29.5283c0 -16.3203 -13.208 -29.5537 -29.54 -29.5537
c-16.2949 0 -29.5283 13.2334 -29.5283 29.5537c0 16.2949 13.2334 29.5283 29.5283 29.5283z" />
    <glyph glyph-name="Euro" unicode="&#x20ac;" 
d="M210.469 323.887l0.00292969 -62.2051h-72.0312c15.8896 -145.588 68.834 -214.741 96.6035 -250.751l-48.6895 -37.5596c-29.3936 38.1006 -92.6934 120.315 -109.788 288.299h-26.5645v62.2178h22.6045c-0.246094 8.6084 -0.40625 17.3281 -0.40625 26.3057
c0 8.84277 0.160156 17.4395 0.393555 25.9131h-22.5801v62.2178h26.5273c16.9961 168.058 80.1855 250.223 109.529 288.299l48.9844 -37.166l-0.270508 -0.356445c-27.708 -35.9727 -80.5664 -105.09 -96.3701 -250.776h72.0557v-62.2178h-76.2256
c-0.246094 -8.51074 -0.529297 -16.96 -0.529297 -25.9131c0 -9.08887 0.283203 -17.6611 0.541016 -26.3066h76.2129z" />
    <glyph glyph-name="uni20b8" unicode="&#x20b8;" horiz-adv-x="304" 
d="M254.128 638.493h-204.128v61.4922h204.128v-61.4922zM50 515.51l0.000976562 61.4922h204.128v-61.4922h-70.8145v-515.511h-62.5127v515.511h-70.8018z" />
    <glyph glyph-name="uni20bd" unicode="&#x20bd;" horiz-adv-x="277" 
d="M121.31 177.57l-0.000976562 -36.8408h65.25v-61.4902h-65.25v-79.2305h-62.5v79.2305h-40.8096v61.4902h40.8096v559.25h62.5l6.41992 -3.4502c50.1201 -25.6797 99.4404 -115.439 99.4404 -256.85c0 -150.07 -59.4697 -222.59 -94.9297 -252.479zM121.309 618.6
v-351.63c21.6504 32.0098 44.3604 86.1299 44.3604 172.71c0 94.4502 -23.8701 150.42 -44.3604 178.92z" />
    <glyph glyph-name="numero" unicode="&#x2116;" horiz-adv-x="442" 
d="M172.983 319.153l0.000976562 380.831h62.5127v-699.986h-64.4316l-58.5527 378.507v-378.507h-62.5127v699.986h64.0498zM353.66 232.757h-50.7812c-15.9268 23.1826 -38.002 71.9453 -38.002 164.54c0 87.0107 17.6729 139.746 35.8008 163.494h55.1953
c18.1279 -23.748 35.8008 -76.4834 35.8008 -163.494c0 -92.5947 -22.0752 -141.357 -38.0137 -164.54zM328.275 525.286c-6.96094 -19.3574 -15.4951 -59.166 -15.4951 -127.815c0 -62.8936 8.10449 -101.511 15.4961 -123.673
c7.40332 22.1738 15.5078 60.7783 15.5078 123.672c0 68.6494 -8.53516 108.459 -15.5088 127.816zM387.001 139.192h-117.683v50.0049h117.683v-50.0049z" />
    <glyph glyph-name="notequal" unicode="&#x2260;" horiz-adv-x="408" 
d="M358.468 532.528l-59.8193 -88.7939h59.8193v-62.5h-101.929l-42.1094 -62.5h144.038v-62.5h-186.148l-59.8193 -88.7822h-62.5l59.8193 88.7822h-59.8193v62.5h101.929l42.1094 62.5h-144.038v62.5h186.148l59.8193 88.7939h62.5z" />
    <glyph glyph-name="uni262d" unicode="&#x262d;" horiz-adv-x="415" 
d="M50 774.118c181.487 -175.769 342.805 -581.908 310.73 -747.358c-8.00586 -41.2734 -26.3301 -70.876 -54.4443 -87.9951c-34.4844 -20.9814 -72.7939 -15.6807 -107.131 3.18457v-16.0498h-56.708v63.1523c-11.4746 13.3809 -21.4121 27.8066 -28.9629 42.4297
v-105.581h-55.9209v191.608l47.0166 -0.40625c0.393555 -0.626953 14.8809 -29.8975 37.8545 -60.9014v184.636h-46.3652v87.4043h133.02l23.957 -87.4043h-53.9033v-241.7c14.7334 -9.67871 30.4512 -15.8652 46.623 -15.8652c9.76465 0 19.3447 2.43555 28.5312 8.03125
c12.7168 7.73535 21.4736 23.6123 26.0488 47.1758c26.1582 134.864 -96.1982 528.941 -250.346 735.64z" />
    <glyph glyph-name="uni2731" unicode="&#x2731;" horiz-adv-x="416" 
d="M365.908 381.22v-62.5h-97.9072l56.167 -80.1611l-51.1855 -35.8623l-65.0342 92.8154l-65.0215 -92.8154l-51.1855 35.8623l56.1543 80.1611h-97.8955l0.0126953 62.5h97.8828l-56.1543 80.1729l51.1855 35.8623l65.0215 -92.8154l65.0342 92.8154l51.1855 -35.8623
l-56.167 -80.1729h97.9072z" />
    <glyph glyph-name="anglebracketleft" unicode="&#x3008;" horiz-adv-x="251" 
d="M200.926 748.424l-88.4258 -398.405l88.4258 -398.405h-62.5127l-88.4131 398.405l88.4131 398.405h62.5127z" />
    <glyph glyph-name="anglebracketright" unicode="&#x3009;" horiz-adv-x="251" 
d="M138.426 350.018l-88.4258 398.405h62.5127l88.4131 -398.405l-88.4131 -398.405h-62.5127z" />
    <glyph glyph-name="O.alt1" unicode="&#xf000;" horiz-adv-x="922" 
d="M892.01 350.14c0 -237.65 -193.36 -430.99 -431.011 -430.99c-237.66 0 -431 193.34 -431 430.99c0 237.66 193.34 431 431 431c237.65 0 431.011 -193.34 431.011 -431zM830.51 350.14c0 203.75 -165.77 369.51 -369.51 369.51s-369.51 -165.76 -369.51 -369.51
c0 -203.74 165.77 -369.5 369.51 -369.5s369.51 165.77 369.51 369.5z" />
    <glyph glyph-name="ocyrillic.alt1" unicode="&#xf001;" horiz-adv-x="818" 
d="M767.585 350.903c0 -197.832 -160.949 -358.792 -358.793 -358.792s-358.793 160.949 -358.793 358.793s160.949 358.78 358.793 358.78s358.793 -160.949 358.793 -358.781zM706.093 350.904c0 163.925 -133.376 297.288 -297.301 297.288
s-297.301 -133.363 -297.301 -297.288c0 -163.938 133.376 -297.301 297.301 -297.301s297.301 133.363 297.301 297.301z" />
    <glyph glyph-name="ocyrillic.alt2" unicode="&#xf002;" horiz-adv-x="818" 
d="M767.585 350.903c0 -197.832 -160.949 -358.792 -358.793 -358.792s-358.793 160.949 -358.793 358.793s160.949 358.78 358.793 358.78s358.793 -160.949 358.793 -358.781zM706.093 350.904c0 163.925 -133.376 297.288 -297.301 297.288
s-297.301 -133.363 -297.301 -297.288c0 -163.938 133.376 -297.301 297.301 -297.301s297.301 133.363 297.301 297.301z" />
    </font>
</defs>
</svg>
